<svg width="16" height="16" viewBox="0 0 16 16" fill="none" xmlns="http://www.w3.org/2000/svg">
<g clip-path="url(#clip0_924_18)">
<g filter="url(#filter0_i_924_18)">
<path d="M13.1016 7.90998C14.3097 7.48974 16.1956 7.20083 14.0734 9.40708L13.1016 7.90998Z" fill="#FCFBF9"/>
<path d="M14.4988 7.54696C14.6355 7.54834 14.7611 7.56603 14.8623 7.6088C14.965 7.65224 15.0462 7.72345 15.0823 7.83067C15.1176 7.93535 15.1056 8.06176 15.0513 8.20802C14.9431 8.4992 14.654 8.9037 14.1226 9.45618L14.0612 9.51994L12.9922 7.87308L13.0771 7.84347C13.3816 7.73755 13.73 7.63945 14.0487 7.5869C14.208 7.56063 14.3613 7.54558 14.4988 7.54696ZM14.4974 7.68799C14.3706 7.68671 14.2258 7.70071 14.0716 7.72614C13.7921 7.77224 13.4862 7.85505 13.2084 7.94773L14.0823 9.29395C14.5718 8.77724 14.8259 8.41059 14.9194 8.15885C14.9678 8.02856 14.9699 7.93782 14.9489 7.8757C14.9288 7.81614 14.8834 7.77072 14.8076 7.73867C14.7302 7.70593 14.6251 7.68928 14.4974 7.68799Z" fill="#DFDFDF"/>
<path d="M2.89844 7.90998C1.69026 7.48974 -0.195552 7.20083 1.92664 9.40708L2.89844 7.90998Z" fill="#FCFBF9"/>
<path d="M1.5012 7.54696C1.3645 7.54834 1.23888 7.56603 1.13773 7.6088C1.03498 7.65224 0.953807 7.72345 0.917672 7.83067C0.882415 7.93535 0.89439 8.06176 0.948717 8.20802C1.05689 8.4992 1.34601 8.9037 1.87744 9.45618L1.93884 9.51994L3.00781 7.87308L2.92292 7.84347C2.61839 7.73755 2.26996 7.63945 1.95134 7.5869C1.79203 7.56063 1.63868 7.54558 1.5012 7.54696ZM1.50257 7.68799C1.62944 7.68671 1.7742 7.70071 1.9284 7.72614C2.20795 7.77224 2.51377 7.85505 2.7916 7.94773L1.91769 9.29395C1.42822 8.77724 1.17411 8.41059 1.08059 8.15885C1.03218 8.02856 1.03012 7.93782 1.05105 7.8757C1.07115 7.81614 1.11659 7.77072 1.1924 7.73867C1.26985 7.70593 1.37491 7.68928 1.50257 7.68799Z" fill="#DFDFDF"/>
<path d="M13.5994 8.54771C13.9846 8.7053 14.6552 9.35141 14.256 10.6752C14.326 10.6752 14.4451 10.7645 14.3611 11.1217C14.65 11.717 14.8496 12.7974 13.3367 12.3561C12.8114 12.9514 11.3301 13.9162 9.60713 13.0127C8.87171 13.3804 7.0752 13.8952 5.77247 13.0127C5.0283 13.4417 3.29833 13.911 2.33179 12.3561C1.75396 12.5662 0.77166 12.6135 1.46505 11.1217C1.39501 11.0166 1.30746 10.7592 1.51758 10.5701C1.30746 10.0798 1.17614 8.96269 2.33179 8.41638C2.18295 7.16443 2.58393 4.56596 5.3785 4.18775C5.59737 3.53988 6.45535 2.40173 8.16256 2.5068C8.71412 2.53306 9.95382 2.6854 10.7102 4.03016C11.8046 3.9251 13.9146 4.68152 13.5994 8.54771Z" fill="#FCFBF9"/>
<path d="M5.32665 4.12439C5.5745 3.44874 6.45578 2.33132 8.16694 2.43663L8.1668 2.43677C8.72117 2.46326 9.97274 2.61652 10.7488 3.95637C11.3119 3.91518 12.1092 4.09185 12.7344 4.75143C13.372 5.42405 13.82 6.58784 13.6731 8.50376C13.8745 8.60024 14.1244 8.80768 14.2853 9.14389C14.4542 9.4968 14.5226 9.98637 14.3423 10.63C14.3779 10.6515 14.4099 10.6867 14.4312 10.7374C14.4658 10.8203 14.472 10.9414 14.4346 11.1133C14.5048 11.2618 14.5693 11.4378 14.6047 11.6142C14.6415 11.7981 14.6484 11.9897 14.5908 12.1516C14.5314 12.3182 14.4053 12.4473 14.1931 12.5016C13.9936 12.5527 13.7215 12.5369 13.3592 12.4358C12.8013 13.0421 11.3243 13.9719 9.60624 13.0916C9.22765 13.2756 8.60241 13.4886 7.90897 13.552C7.20831 13.6161 6.4311 13.5279 5.76937 13.0952C5.38564 13.3078 4.77389 13.5224 4.13295 13.4992C3.47981 13.4755 2.79757 13.2045 2.30257 12.441C2.16569 12.4866 2.0105 12.5223 1.8597 12.5322C1.69047 12.5433 1.5176 12.5226 1.38387 12.4368C1.24531 12.3478 1.16036 12.1966 1.1564 11.975C1.15262 11.764 1.22165 11.4865 1.38566 11.1261C1.35176 11.0642 1.32019 10.977 1.31601 10.8807C1.3114 10.774 1.34061 10.6563 1.43483 10.5535C1.33416 10.2956 1.25986 9.9019 1.34376 9.50003C1.43122 9.08117 1.68982 8.65782 2.25682 8.37472C2.19034 7.73799 2.26145 6.7889 2.6887 5.94285C3.12489 5.07911 3.93086 4.32611 5.32665 4.12439ZM8.15828 2.57738C6.49022 2.47473 5.65651 3.58516 5.44519 4.2106L5.43118 4.25206L5.38791 4.25784C4.01533 4.44361 3.23544 5.17218 2.81411 6.00648C2.39083 6.84466 2.32842 7.79266 2.40161 8.40832L2.40765 8.45873L2.36177 8.48035C1.80454 8.74377 1.56239 9.14104 1.4814 9.52895C1.39959 9.92081 1.48164 10.3079 1.58223 10.5426L1.60214 10.589L1.56464 10.6229C1.47735 10.7014 1.45294 10.7916 1.45654 10.8746C1.46027 10.9606 1.49437 11.0389 1.52357 11.0827L1.54555 11.1158L1.52879 11.1517C1.35738 11.5205 1.29374 11.7859 1.29706 11.9724C1.30032 12.1549 1.36714 12.2585 1.4597 12.3179C1.55709 12.3805 1.69474 12.4018 1.8505 12.3916C2.0048 12.3815 2.16791 12.341 2.30779 12.2901L2.36136 12.2705L2.39144 12.319C2.86075 13.074 3.51192 13.3354 4.13803 13.3581C4.76817 13.381 5.37388 13.1615 5.73751 12.9519L5.77556 12.93L5.81182 12.9546C6.44512 13.3836 7.20184 13.475 7.89619 13.4116C8.59049 13.3481 9.21504 13.1303 9.57575 12.9499L9.60789 12.9338L9.63976 12.9505C11.3225 13.8329 12.7701 12.8921 13.284 12.3097L13.3136 12.2762L13.3564 12.2886C13.7295 12.3974 13.9864 12.409 14.1582 12.365C14.325 12.3223 14.4147 12.2268 14.4584 12.1042C14.5038 11.9767 14.5013 11.8141 14.4668 11.6419C14.4325 11.4708 14.368 11.2975 14.2978 11.1528L14.2868 11.1302L14.2926 11.1057C14.3331 10.9336 14.3212 10.8392 14.3015 10.792C14.2832 10.7483 14.2597 10.746 14.256 10.746H14.1613L14.1887 10.655C14.384 10.0074 14.3157 9.53344 14.1585 9.2049C14.0004 8.8745 13.7498 8.68565 13.5728 8.61325L13.5251 8.59369L13.5292 8.54218C13.6858 6.62172 13.2391 5.48859 12.6324 4.84853C12.0248 4.20752 11.2463 4.04975 10.717 4.10057L10.6715 4.10497L10.649 4.06503C9.91072 2.7526 8.70304 2.60341 8.15924 2.57752L8.15828 2.57738Z" fill="#DFDFDF"/>
<path d="M8.95149 9.28285C8.95149 9.47142 8.85741 9.62429 8.74137 9.62429C8.62532 9.62429 8.53125 9.47142 8.53125 9.28285C8.53125 9.09428 8.62532 8.94141 8.74137 8.94141C8.85741 8.94141 8.95149 9.09428 8.95149 9.28285Z" fill="black"/>
<path d="M6.11555 9.28285C6.11555 9.47142 6.02148 9.62429 5.90543 9.62429C5.78939 9.62429 5.69531 9.47142 5.69531 9.28285C5.69531 9.09428 5.78939 8.94141 5.90543 8.94141C6.02148 8.94141 6.11555 9.09428 6.11555 9.28285Z" fill="black"/>
<path d="M7.32625 9.80588C7.36751 9.85088 7.44011 9.90331 7.52034 9.91812C7.59414 9.93173 7.68269 9.9155 7.77199 9.80836L7.87996 9.8987C7.75918 10.0436 7.62015 10.0799 7.49479 10.0568C7.4039 10.04 7.3252 9.99298 7.26855 9.94497C7.13123 10.0393 7.00987 10.065 6.90797 10.0455C6.79596 10.024 6.72204 9.95069 6.6875 9.88741L6.81085 9.81965C6.82885 9.85264 6.87047 9.89485 6.93434 9.9071C6.99642 9.91899 7.09449 9.90532 7.23105 9.79803L7.28229 9.75781L7.32625 9.80588Z" fill="black"/>
<g filter="url(#filter1_f_924_18)">
<path d="M5.01524 10.2752C5.01524 10.8554 4.54488 11.3258 3.96465 11.3258C3.38443 11.3258 2.91406 10.8554 2.91406 10.2752C2.91406 9.69498 3.38443 9.22461 3.96465 9.22461C4.54488 9.22461 5.01524 9.69498 5.01524 10.2752Z" fill="#FFBFBF" fill-opacity="0.5"/>
</g>
<g filter="url(#filter2_f_924_18)">
<path d="M11.8434 10.2752C11.8434 10.8554 11.373 11.3258 10.7928 11.3258C10.2126 11.3258 9.74219 10.8554 9.74219 10.2752C9.74219 9.69498 10.2126 9.22461 10.7928 9.22461C11.373 9.22461 11.8434 9.69498 11.8434 10.2752Z" fill="#FFBFBF" fill-opacity="0.5"/>
</g>
</g>
</g>
<defs>
<filter id="filter0_i_924_18" x="-3.10156" y="-5.57031" width="18.2031" height="19.1406" filterUnits="userSpaceOnUse" color-interpolation-filters="sRGB">
<feFlood flood-opacity="0" result="BackgroundImageFix"/>
<feBlend mode="normal" in="SourceGraphic" in2="BackgroundImageFix" result="shape"/>
<feColorMatrix in="SourceAlpha" type="matrix" values="0 0 0 0 0 0 0 0 0 0 0 0 0 0 0 0 0 0 127 0" result="hardAlpha"/>
<feOffset dx="-4" dy="-12"/>
<feGaussianBlur stdDeviation="4"/>
<feComposite in2="hardAlpha" operator="arithmetic" k2="-1" k3="1"/>
<feColorMatrix type="matrix" values="0 0 0 0 0 0 0 0 0 0 0 0 0 0 0 0 0 0 0.12 0"/>
<feBlend mode="normal" in2="shape" result="effect1_innerShadow_924_18"/>
</filter>
<filter id="filter1_f_924_18" x="-8.08594" y="-1.77539" width="24.1016" height="24.1016" filterUnits="userSpaceOnUse" color-interpolation-filters="sRGB">
<feFlood flood-opacity="0" result="BackgroundImageFix"/>
<feBlend mode="normal" in="SourceGraphic" in2="BackgroundImageFix" result="shape"/>
<feGaussianBlur stdDeviation="5.5" result="effect1_foregroundBlur_924_18"/>
</filter>
<filter id="filter2_f_924_18" x="-1.25781" y="-1.77539" width="24.1016" height="24.1016" filterUnits="userSpaceOnUse" color-interpolation-filters="sRGB">
<feFlood flood-opacity="0" result="BackgroundImageFix"/>
<feBlend mode="normal" in="SourceGraphic" in2="BackgroundImageFix" result="shape"/>
<feGaussianBlur stdDeviation="5.5" result="effect1_foregroundBlur_924_18"/>
</filter>
<clipPath id="clip0_924_18">
<rect width="16" height="16" fill="white"/>
</clipPath>
</defs>
</svg>
