<svg width="237" height="40" viewBox="0 0 237 40" fill="none" xmlns="http://www.w3.org/2000/svg">
<g clip-path="url(#clip0_794_102)">
<g filter="url(#filter0_i_794_102)">
<path d="M229.875 28.0784C234.334 26.5502 241.293 25.4996 233.461 33.5224L229.875 28.0784Z" fill="#FCFBF9"/>
<path d="M235.035 26.889C235.531 26.8939 235.975 26.9576 236.326 27.1038C236.68 27.2512 236.945 27.486 237.063 27.8314C237.18 28.1723 237.145 28.5987 236.95 29.1158C236.561 30.1474 235.512 31.6019 233.552 33.6092L233.441 33.7225L229.68 28.0128L229.833 27.9603C230.952 27.5767 232.23 27.2223 233.396 27.0328C233.98 26.938 234.537 26.884 235.035 26.889ZM235.032 27.139C234.554 27.1342 234.012 27.1863 233.438 27.2796C232.342 27.4576 231.142 27.7852 230.069 28.1453L233.479 33.3214C235.363 31.3771 236.35 29.9902 236.713 29.0289C236.897 28.5401 236.914 28.1769 236.823 27.9112C236.734 27.6501 236.532 27.4612 236.227 27.3341C235.919 27.2057 235.512 27.1438 235.032 27.139Z" fill="#FECAC9"/>
<path d="M192.219 28.0784C187.76 26.5502 180.8 25.4996 188.632 33.5224L192.219 28.0784Z" fill="#FCFBF9"/>
<path d="M187.059 26.889C186.563 26.8939 186.119 26.9576 185.768 27.1038C185.414 27.2512 185.149 27.486 185.03 27.8314C184.914 28.1723 184.949 28.5987 185.144 29.1158C185.533 30.1474 186.582 31.6019 188.542 33.6092L188.652 33.7225L192.414 28.0128L192.261 27.9603C191.142 27.5767 189.864 27.2223 188.697 27.0328C188.114 26.938 187.556 26.884 187.059 26.889ZM187.062 27.139C187.54 27.1342 188.082 27.1863 188.656 27.2796C189.752 27.4576 190.952 27.7852 192.024 28.1453L188.615 33.3214C186.73 31.3771 185.744 29.9902 185.381 29.0289C185.197 28.5401 185.18 28.1769 185.271 27.9112C185.36 27.6501 185.562 27.4612 185.867 27.3341C186.175 27.2057 186.582 27.1438 187.062 27.139Z" fill="#FECAC9"/>
<path d="M231.717 21.9917C233.138 22.5647 235.613 24.9142 234.14 29.7278C234.399 29.7278 234.838 30.0526 234.528 31.3515C235.594 33.5163 236.331 37.4449 230.748 35.8404C228.809 38.0052 223.342 41.5136 216.983 38.2281C214.269 39.5652 207.639 41.4372 202.831 38.2281C200.085 39.7881 193.701 41.4945 190.134 35.8404C188.001 36.6045 184.376 36.7764 186.935 31.3515C186.676 30.9695 186.353 30.0335 187.129 29.3458C186.353 27.563 185.869 23.5007 190.134 21.5141C189.584 16.9615 191.064 7.51258 201.378 6.13726C202.185 3.78138 205.352 -0.357336 211.652 0.0247131C213.688 0.120218 218.263 0.674168 221.054 5.5642C225.093 5.18217 232.88 7.93282 231.717 21.9917Z" fill="#FCFBF9"/>
<path d="M201.285 6.02424C202.146 3.61775 205.355 -0.482468 211.662 -0.100027L211.662 -0.0997828C213.702 -0.00386067 218.299 0.551801 221.126 5.43293C223.175 5.26236 226.124 5.8792 228.43 8.27668C230.759 10.6976 232.414 14.9141 231.852 21.9119C232.581 22.2318 233.528 22.975 234.13 24.2156C234.747 25.4849 234.998 27.2655 234.302 29.6317C234.442 29.6816 234.579 29.7994 234.666 30.0045C234.782 30.277 234.809 30.7004 234.663 31.3372C234.926 31.8778 235.167 32.5231 235.298 33.1673C235.432 33.8253 235.454 34.4951 235.253 35.0516C235.048 35.6166 234.617 36.0547 233.877 36.2415C233.159 36.4227 232.157 36.3659 230.791 35.9818C228.792 38.1669 223.333 41.6116 216.983 38.3677C215.605 39.0366 213.284 39.8252 210.706 40.0574C208.114 40.2909 205.25 39.9636 202.828 38.3746C201.433 39.1513 199.163 39.9493 196.788 39.8646C194.39 39.779 191.887 38.7929 190.082 35.9908C189.562 36.169 188.963 36.3115 188.384 36.3489C187.772 36.3885 187.167 36.3126 186.708 36.022C186.24 35.726 185.944 35.2205 185.93 34.4512C185.917 33.7004 186.171 32.6933 186.793 31.3604C186.665 31.1496 186.535 30.8271 186.519 30.4688C186.503 30.0907 186.613 29.6729 186.98 29.3138C186.601 28.3982 186.307 26.9534 186.619 25.4808C186.938 23.9764 187.887 22.4516 189.999 21.4405C189.739 19.1445 189.987 15.6682 191.571 12.578C193.17 9.45657 196.131 6.73458 201.285 6.02424ZM211.646 0.149485C205.417 -0.22827 202.294 3.86104 201.5 6.17732L201.474 6.2508L201.396 6.2613C196.284 6.94302 193.37 9.6213 191.797 12.6907C190.22 15.767 189.989 19.2413 190.261 21.4993L190.272 21.5887L190.19 21.6273C188.094 22.6032 187.174 24.0823 186.867 25.5321C186.558 26.9887 186.867 28.4238 187.247 29.2967L187.283 29.379L187.215 29.4388C186.86 29.7542 186.758 30.1221 186.773 30.4578C186.788 30.7988 186.923 31.1067 187.042 31.2823L187.082 31.3406L187.052 31.4044C186.416 32.7533 186.171 33.7395 186.184 34.4468C186.197 35.1471 186.46 35.568 186.845 35.8116C187.239 36.0606 187.78 36.1374 188.368 36.0994C188.953 36.0616 189.567 35.911 190.092 35.723L190.189 35.6883L190.243 35.7745C192.002 38.5618 194.448 39.5307 196.797 39.6146C199.153 39.6987 201.412 38.8913 202.77 38.1199L202.839 38.0809L202.905 38.1246C205.276 39.7074 208.102 40.0409 210.683 39.8084C213.263 39.576 215.584 38.7786 216.928 38.1163L216.987 38.0877L217.044 38.1175C223.33 41.3654 228.736 37.8997 230.654 35.7576L230.708 35.6983L230.785 35.7205C232.171 36.119 233.147 36.1678 233.814 35.9993C234.472 35.8332 234.837 35.4547 235.014 34.9676C235.193 34.4719 235.179 33.8537 235.05 33.2164C234.92 32.5813 234.679 31.9399 234.416 31.4061L234.396 31.3663L234.406 31.3228C234.559 30.6848 234.521 30.3094 234.432 30.1009C234.346 29.8984 234.214 29.8529 234.142 29.8529H233.971L234.02 29.6917C234.749 27.3103 234.498 25.5522 233.902 24.3236C233.303 23.0917 232.353 22.3826 231.671 22.1075L231.585 22.0728L231.592 21.9815C232.172 14.9744 230.52 10.8118 228.246 8.44856C225.971 6.08367 223.055 5.50083 221.068 5.68879L220.986 5.69636L220.946 5.62556C218.187 0.792838 213.669 0.244573 211.648 0.149729L211.646 0.149485Z" fill="#FECAC9"/>
<path d="M214.559 24.6654C214.559 25.3512 214.212 25.907 213.783 25.907C213.355 25.907 213.008 25.3512 213.008 24.6654C213.008 23.9797 213.355 23.4238 213.783 23.4238C214.212 23.4238 214.559 23.9797 214.559 24.6654Z" fill="black"/>
<path d="M204.09 24.6654C204.09 25.3512 203.743 25.907 203.315 25.907C202.886 25.907 202.539 25.3512 202.539 24.6654C202.539 23.9797 202.886 23.4238 203.315 23.4238C203.743 23.4238 204.09 23.9797 204.09 24.6654Z" fill="black"/>
<path d="M208.448 26.6577C208.613 26.8354 208.905 27.0459 209.238 27.1064C209.559 27.1648 209.933 27.0871 210.293 26.6621L210.488 26.8223C210.071 27.3141 209.606 27.4276 209.192 27.3523C208.841 27.2886 208.54 27.0922 208.342 26.9077C207.82 27.2859 207.378 27.3779 207.027 27.3115C206.659 27.242 206.416 27.0039 206.305 26.802L206.527 26.6824C206.609 26.8306 206.794 27.0129 207.075 27.0659C207.353 27.1183 207.752 27.0494 208.276 26.6438L208.369 26.5723L208.448 26.6577Z" fill="black"/>
<g filter="url(#filter1_f_794_102)">
<path d="M200.02 28.2696C200.02 30.3795 198.284 32.0899 196.143 32.0899C194.002 32.0899 192.266 30.3795 192.266 28.2696C192.266 26.1596 194.002 24.4492 196.143 24.4492C198.284 24.4492 200.02 26.1596 200.02 28.2696Z" fill="#FF9A9A" fill-opacity="0.5"/>
</g>
<g filter="url(#filter2_f_794_102)">
<path d="M225.223 28.2696C225.223 30.3795 223.487 32.0899 221.346 32.0899C219.205 32.0899 217.469 30.3795 217.469 28.2696C217.469 26.1596 219.205 24.4492 221.346 24.4492C223.487 24.4492 225.223 26.1596 225.223 28.2696Z" fill="#FF9A9A" fill-opacity="0.5"/>
</g>
</g>
<path d="M161.956 34.745C160.559 34.745 159.399 34.5 158.475 34.01C157.552 33.4967 156.865 32.8433 156.415 32.05C155.965 31.2567 155.752 30.4283 155.776 29.565C155.8 28.6783 156.048 27.8383 156.522 27.045C156.995 26.2517 157.694 25.61 158.618 25.12C159.565 24.6067 160.737 24.35 162.134 24.35C162.442 24.35 162.75 24.3617 163.058 24.385C163.058 24.035 163.058 23.7083 163.058 23.405C161.353 23.405 159.92 23.3583 158.76 23.265C157.599 23.1717 156.711 22.9383 156.096 22.565C155.504 22.1917 155.208 21.5967 155.208 20.78C155.208 19.9633 155.504 19.38 156.096 19.03C156.688 18.6567 157.552 18.4233 158.689 18.33C159.849 18.2133 161.27 18.155 162.951 18.155C162.951 17.735 162.951 17.3383 162.951 16.965C161.128 16.965 159.577 16.9183 158.298 16.825C157.043 16.7083 156.084 16.4517 155.421 16.055C154.781 15.635 154.462 14.9817 154.462 14.095C154.462 13.115 154.829 12.4267 155.563 12.03C156.321 11.6333 157.41 11.4 158.831 11.33C160.275 11.2367 162.027 11.19 164.088 11.19C166.171 11.19 167.924 11.2367 169.345 11.33C170.765 11.4 171.843 11.6333 172.577 12.03C173.335 12.4267 173.714 13.115 173.714 14.095C173.714 15.145 173.264 15.8567 172.364 16.23C171.464 16.6033 170.162 16.825 168.457 16.895C168.457 17.105 168.457 17.315 168.457 17.525C168.457 17.735 168.457 17.9683 168.457 18.225C169.925 18.295 171.05 18.505 171.831 18.855C172.612 19.205 173.003 19.8467 173.003 20.78C173.003 21.7133 172.612 22.355 171.831 22.705C171.05 23.055 169.913 23.265 168.421 23.335C168.421 24.0583 168.421 24.8167 168.421 25.61C169.392 26.0767 170.162 26.6133 170.73 27.22C171.298 27.8033 171.713 28.375 171.973 28.935C172.234 29.4717 172.364 29.915 172.364 30.265C172.364 31.035 172.151 31.6533 171.724 32.12C171.298 32.5633 170.789 32.785 170.197 32.785C169.676 32.785 169.214 32.6683 168.812 32.435C168.433 32.1783 168.066 31.875 167.711 31.525C167.19 32.5983 166.432 33.4033 165.437 33.94C164.443 34.4767 163.282 34.745 161.956 34.745ZM150.874 34.745C149.998 34.745 149.228 34.395 148.565 33.695C147.926 32.9717 147.381 32.015 146.931 30.825C146.505 29.635 146.174 28.3283 145.937 26.905C145.724 25.4817 145.617 24.0583 145.617 22.635C145.617 21.3983 145.676 20.15 145.795 18.89C145.913 17.6067 146.138 16.4283 146.47 15.355C146.825 14.2817 147.31 13.4183 147.926 12.765C148.565 12.0883 149.394 11.75 150.412 11.75C151.525 11.75 152.33 12.0883 152.828 12.765C153.325 13.4183 153.574 14.2 153.574 15.11C153.574 15.9733 153.42 16.825 153.112 17.665C152.828 18.505 152.532 19.4267 152.224 20.43C151.94 21.4333 151.798 22.6117 151.798 23.965C151.798 25.3183 151.857 26.4267 151.975 27.29C152.117 28.13 152.271 28.83 152.437 29.39C152.626 29.9267 152.78 30.4167 152.899 30.86C153.041 31.28 153.112 31.77 153.112 32.33C153.112 33.03 152.887 33.6133 152.437 34.08C151.987 34.5233 151.466 34.745 150.874 34.745ZM162.347 28.655C161.755 28.655 161.305 28.7833 160.997 29.04C160.713 29.2733 160.571 29.5417 160.571 29.845C160.571 30.1483 160.69 30.4283 160.926 30.685C161.187 30.9183 161.554 31.035 162.027 31.035C162.525 31.035 162.833 30.825 162.951 30.405C163.093 29.9617 163.164 29.5417 163.164 29.145C163.164 29.075 163.164 28.9233 163.164 28.69C162.904 28.6667 162.631 28.655 162.347 28.655ZM175.987 10.7C175.276 10.7 174.803 10.42 174.566 9.86C174.353 9.27667 174.246 8.54167 174.246 7.655C174.246 6.90833 174.365 6.24333 174.602 5.66C174.838 5.05333 175.324 4.75 176.058 4.75C177.337 4.75 177.976 5.64833 177.976 7.445C177.976 8.33167 177.834 9.10167 177.55 9.755C177.266 10.385 176.745 10.7 175.987 10.7ZM171.582 10.7C170.896 10.7 170.422 10.4317 170.162 9.895C169.901 9.335 169.771 8.55333 169.771 7.55C169.771 6.68667 169.901 6.01 170.162 5.52C170.422 5.00667 170.896 4.75 171.582 4.75C172.269 4.75 172.754 5.00667 173.039 5.52C173.323 6.01 173.465 6.69833 173.465 7.585C173.465 8.565 173.323 9.335 173.039 9.895C172.754 10.4317 172.269 10.7 171.582 10.7Z" fill="#7A9FCC"/>
<path d="M136.208 18.0161C135.711 18.0161 135.071 17.9694 134.29 17.8761C133.532 17.7828 132.715 17.6428 131.839 17.4561C130.963 17.2461 130.098 17.0011 129.246 16.7211C128.417 16.4411 127.695 16.1261 127.079 15.7761C126.464 15.4261 126.002 15.0178 125.694 14.5511C125.41 14.0844 125.268 13.5944 125.268 13.0811C125.268 12.3578 125.576 11.7044 126.191 11.1211C126.831 10.5378 127.695 10.2461 128.784 10.2461C129.518 10.2461 130.43 10.3394 131.519 10.5261C132.608 10.7128 133.71 10.9811 134.823 11.3311C135.936 11.6578 136.871 12.0661 137.629 12.5561C138.244 12.9294 138.694 13.3728 138.978 13.8861C139.263 14.3761 139.405 14.8778 139.405 15.3911C139.405 16.0911 139.132 16.7094 138.588 17.2461C138.043 17.7594 137.25 18.0161 136.208 18.0161ZM129.956 35.1661C129.151 35.1661 128.334 35.0728 127.505 34.8861C126.7 34.6994 126.025 34.4078 125.481 34.0111C124.936 33.5911 124.664 33.0311 124.664 32.3311C124.664 31.7011 124.972 31.1528 125.587 30.6861C126.227 30.1961 127.15 29.9978 128.358 30.0911C128.76 30.1378 129.281 30.1611 129.921 30.1611C130.56 30.1378 131.2 30.0561 131.839 29.9161C132.478 29.7761 133.023 29.5194 133.473 29.1461C133.923 28.7728 134.148 28.2594 134.148 27.6061C134.148 26.9528 133.946 26.4744 133.544 26.1711C133.141 25.8444 132.668 25.6461 132.123 25.5761C131.578 25.4828 131.081 25.4828 130.631 25.5761C129.779 25.7161 129.08 25.9611 128.536 26.3111C127.991 26.6378 127.482 26.9878 127.008 27.3611C126.535 27.7111 126.014 28.0261 125.445 28.3061C124.901 28.5628 124.178 28.6911 123.279 28.6911C122.166 28.6911 121.289 28.3061 120.65 27.5361C120.034 26.7661 119.727 25.7394 119.727 24.4561C119.727 23.4061 119.774 22.3794 119.869 21.3761C119.963 20.3494 120.153 19.4278 120.437 18.6111C120.721 17.7944 121.136 17.1411 121.68 16.6511C122.225 16.1611 122.959 15.9161 123.882 15.9161C124.688 15.9161 125.291 16.0794 125.694 16.4061C126.12 16.7328 126.404 17.1528 126.546 17.6661C126.712 18.1561 126.795 18.6811 126.795 19.2411C126.795 19.7078 126.76 20.1628 126.688 20.6061C126.641 21.0261 126.594 21.3878 126.546 21.6911C127.375 21.1544 128.287 20.7461 129.281 20.4661C130.3 20.1861 131.33 20.0461 132.372 20.0461C133.816 20.0461 135.19 20.3144 136.492 20.8511C137.818 21.3878 138.896 22.1811 139.724 23.2311C140.577 24.2811 141.003 25.5994 141.003 27.1861C141.003 28.5628 140.695 29.7528 140.08 30.7561C139.464 31.7594 138.623 32.5878 137.558 33.2411C136.516 33.8944 135.332 34.3844 134.006 34.7111C132.703 35.0144 131.353 35.1661 129.956 35.1661Z" fill="#7A9FCC"/>
<path d="M106.642 34.9199C105.979 34.9199 105.174 34.8849 104.227 34.8149C103.303 34.7449 102.344 34.5816 101.35 34.3249C100.355 34.0449 99.4197 33.6249 98.5436 33.0649C97.6911 32.5049 96.9925 31.7466 96.4479 30.7899C95.9032 29.8099 95.6309 28.5733 95.6309 27.0799C95.6309 26.0533 95.8204 25.0149 96.1992 23.9649C96.5781 22.8916 97.1109 21.8649 97.7976 20.8849C97.2293 20.0683 96.7084 19.2049 96.2348 18.2949C95.7612 17.3616 95.3823 16.4866 95.0981 15.6699C94.814 14.8533 94.6719 14.1766 94.6719 13.6399C94.6719 12.5199 95.0152 11.7033 95.702 11.1899C96.4124 10.6766 97.1938 10.4199 98.0463 10.4199C98.804 10.4199 99.4434 10.6183 99.9644 11.0149C100.509 11.4116 100.935 11.9133 101.243 12.5199C101.456 12.9399 101.729 13.4766 102.06 14.1299C102.415 14.7599 102.77 15.4249 103.126 16.1249C104.144 15.5649 105.245 15.1099 106.429 14.7599C107.613 14.3866 108.856 14.1649 110.159 14.0949C111.295 14.0249 112.219 14.1649 112.929 14.5149C113.663 14.8649 114.208 15.3199 114.563 15.8799C114.918 16.4399 115.096 17.0116 115.096 17.5949C115.096 17.8749 114.989 18.2249 114.776 18.6449C114.587 19.0649 114.267 19.4616 113.817 19.8349C113.367 20.2083 112.752 20.4649 111.97 20.6049C109.129 21.1183 106.843 21.8999 105.115 22.9499C103.41 23.9766 102.557 25.1433 102.557 26.4499C102.557 27.1733 102.806 27.7449 103.303 28.1649C103.824 28.5616 104.475 28.8299 105.257 28.9699C106.038 29.0866 106.808 29.0983 107.566 29.0049C108.229 28.9116 108.915 28.8649 109.626 28.8649C110.36 28.8416 111.047 28.9116 111.686 29.0749C112.325 29.2383 112.834 29.5416 113.213 29.9849C113.616 30.4049 113.817 30.9999 113.817 31.7699C113.817 32.8199 113.178 33.6133 111.899 34.1499C110.644 34.6633 108.892 34.9199 106.642 34.9199Z" fill="#FECAC9"/>
<path d="M70.5193 34.9551C69.43 34.9551 68.5894 34.6167 67.9974 33.9401C67.4054 33.2401 67.1094 32.4467 67.1094 31.5601C67.1094 30.5334 67.1923 29.3201 67.358 27.9201C67.5475 26.5201 67.8198 25.0151 68.175 23.4051C68.5302 21.7717 68.9564 20.1384 69.4537 18.5051C69.951 16.8717 70.5193 15.3201 71.1587 13.8501C71.7033 12.5901 72.319 11.7151 73.0057 11.2251C73.7161 10.7117 74.4383 10.4551 75.1724 10.4551C75.8828 10.4551 76.5222 10.6884 77.0905 11.1551C77.6588 11.5984 77.943 12.3334 77.943 13.3601C77.943 13.9201 77.8127 14.6784 77.5523 15.6351C77.2918 16.5684 76.9958 17.5251 76.6643 18.5051C76.3327 19.4851 76.0367 20.3367 75.7763 21.0601C76.1078 20.9201 76.4275 20.8267 76.7353 20.7801C77.0431 20.7334 77.3747 20.7101 77.7299 20.7101C78.9849 20.7101 79.9795 21.0134 80.7135 21.6201C81.4713 22.2034 82.0041 22.9967 82.3119 24.0001C82.6435 24.9801 82.8092 26.0651 82.8092 27.2551C82.8092 27.8617 82.8211 28.3751 82.8447 28.7951C82.8921 29.2151 83.1999 29.4251 83.7683 29.4251C84.1945 29.4251 84.5142 29.2967 84.7273 29.0401C84.9404 28.7601 85.1062 28.4217 85.2246 28.0251C85.3667 27.6284 85.4969 27.2667 85.6153 26.9401C86.1363 25.5401 86.9769 24.8401 88.1372 24.8401C88.6819 24.8401 89.191 25.0617 89.6646 25.5051C90.1382 25.9484 90.375 26.6134 90.375 27.5001C90.375 28.8301 90.079 30.0551 89.487 31.1751C88.895 32.2951 88.0899 33.1934 87.0716 33.8701C86.0534 34.5467 84.8931 34.8851 83.5907 34.8851C82.1935 34.8851 81.0806 34.6867 80.2518 34.2901C79.423 33.8701 78.8073 33.3684 78.4047 32.7851C78.0022 32.1784 77.7299 31.5834 77.5878 31.0001C77.4694 30.4167 77.4102 29.9384 77.4102 29.5651C77.4102 28.8651 77.2563 28.3401 76.9484 27.9901C76.6406 27.6401 76.2499 27.4651 75.7763 27.4651C75.3263 27.4651 74.9593 27.6867 74.6751 28.1301C74.4147 28.5734 74.1897 29.1334 74.0003 29.8101C73.8108 30.4867 73.6332 31.1867 73.4675 31.9101C73.3017 32.6334 72.9702 33.3217 72.4729 33.9751C71.9993 34.6284 71.3481 34.9551 70.5193 34.9551Z" fill="#7A9FCC"/>
<path d="M44.5859 34.5699C43.5203 34.5933 42.4666 34.3366 41.4247 33.7999C40.3827 33.2633 39.4355 32.4466 38.5831 31.3499C37.7306 30.2299 37.0557 28.8533 36.5584 27.2199C36.0611 25.5866 35.8125 23.6849 35.8125 21.5149C35.8125 20.6749 35.8599 19.7766 35.9546 18.8199C36.073 17.8399 36.2979 16.9183 36.6295 16.0549C36.961 15.1683 37.4346 14.4449 38.0503 13.8849C38.6896 13.3249 39.5303 13.0449 40.5722 13.0449C41.7562 13.0449 42.6442 13.3599 43.2362 13.9899C43.8282 14.6199 44.1242 15.4133 44.1242 16.3699C44.1242 16.9999 44.065 17.8983 43.9466 19.0649C43.8519 20.2316 43.7808 21.4216 43.7335 22.6349C43.6861 23.8249 43.7571 24.8749 43.9466 25.7849C44.136 26.6949 44.3728 27.3716 44.657 27.8149C44.9648 28.2349 45.2371 28.3516 45.4739 28.1649C46.3501 27.4649 47.2026 27.0449 48.0314 26.9049C48.8602 26.7649 49.5351 26.9049 50.056 27.3249C50.6007 27.7449 50.873 28.4449 50.873 29.4249C50.873 30.0316 50.6599 30.6383 50.2336 31.2449C49.8074 31.8516 49.2627 32.3999 48.5997 32.8899C47.9367 33.3799 47.2381 33.7766 46.504 34.0799C45.7936 34.3833 45.1543 34.5466 44.5859 34.5699ZM58.6163 31.1399C58.0243 31.1399 57.456 31.0116 56.9114 30.7549C56.3904 30.4749 55.9642 30.1016 55.6327 29.6349C55.3248 29.1449 55.1946 28.5733 55.2419 27.9199C55.3367 26.7066 55.3248 25.7149 55.2064 24.9449C55.1117 24.1749 54.9578 23.5333 54.7447 23.0199C54.5552 22.5066 54.3303 22.0399 54.0698 21.6199C53.833 21.1999 53.5962 20.7449 53.3594 20.2549C53.1226 19.7649 52.945 19.1466 52.8266 18.3999C52.6608 17.3733 52.8858 16.5333 53.5015 15.8799C54.1171 15.2266 54.9223 14.8999 55.9168 14.8999C56.864 14.8999 57.7283 15.2149 58.5098 15.8449C59.2912 16.4749 59.9661 17.2799 60.5344 18.2599C61.1027 19.2399 61.5408 20.2783 61.8487 21.3749C62.1565 22.4716 62.3104 23.4983 62.3104 24.4549C62.3104 25.4816 62.1683 26.5083 61.8842 27.5349C61.6237 28.5616 61.2211 29.4249 60.6765 30.1249C60.1319 30.8016 59.4451 31.1399 58.6163 31.1399Z" fill="#7A9FCC"/>
<path d="M16.3392 34.7445C14.9421 34.7445 13.7818 34.4995 12.8582 34.0095C11.9347 33.4961 11.248 32.8428 10.7981 32.0495C10.3482 31.2561 10.135 30.4278 10.1587 29.5645C10.1824 28.6778 10.431 27.8378 10.9046 27.0445C11.3782 26.2511 12.0768 25.6095 13.0003 25.1195C13.9475 24.6061 15.1197 24.3495 16.5168 24.3495C16.8246 24.3495 17.1325 24.3611 17.4403 24.3845C17.4403 24.0345 17.4403 23.7078 17.4403 23.405C15.7354 23.405 14.3027 23.3578 13.1424 23.2645C11.9821 23.1711 11.0941 22.9378 10.4784 22.5645C9.8864 22.1911 9.5904 21.5961 9.5904 20.7795C9.5904 19.9628 9.8864 19.3795 10.4784 19.0295C11.0704 18.6561 11.9347 18.4228 13.0714 18.3295C14.2317 18.2128 15.6525 18.1545 17.3338 18.1545C17.3338 17.7345 17.3338 17.3383 17.3338 16.965C15.5104 16.965 13.9594 16.9183 12.6806 16.8245C11.4256 16.7083 10.4666 16.4517 9.80352 16.055C9.16416 15.635 8.84448 14.9817 8.84448 14.095C8.84448 13.115 8.829 12.4267 9.9456 12.0295C10.7034 11.6328 11.7926 11.3995 13.2134 11.3295C14.6579 11.2361 16.4102 11.1895 18.4704 11.1895C20.5542 11.1895 22.3066 11.2361 23.7274 11.3295C25.1482 11.3995 26.2256 11.6328 26.9597 12.0295C27.7174 12.4261 28.0963 13.1145 28.0963 14.0945C28.0963 15.1445 27.6464 15.8561 26.7466 16.2295C25.8467 16.6028 24.5443 16.825 22.8394 16.895C22.8394 17.105 22.8394 17.315 22.8394 17.525C22.8394 17.735 22.8394 17.9683 22.8394 18.225C24.3075 18.295 25.4323 18.505 26.2138 18.855C26.9952 19.2045 27.3859 19.8467 27.3859 20.78C27.3859 21.7133 26.9952 22.355 26.2138 22.705C25.4323 23.055 24.2957 23.265 22.8038 23.335C22.8038 24.0583 22.8038 24.8167 22.8038 25.61C23.7747 26.0767 24.5443 26.6133 25.1126 27.22C25.681 27.8033 26.0954 28.375 26.3558 28.935C26.6163 29.4717 26.7466 29.915 26.7466 30.265C26.7466 31.035 26.5334 31.6533 26.1072 32.12C25.681 32.5633 25.1718 32.785 24.5798 32.785C24.0589 32.785 23.5971 32.6683 23.1946 32.435C22.8157 32.1783 22.4486 31.875 22.0934 31.525C21.5725 32.5978 20.8147 33.4033 19.8202 33.94C18.8256 34.4767 17.6653 34.745 16.3392 34.745ZM5.25696 34.7445C4.3808 34.7445 3.6112 34.395 2.94816 33.695C2.3088 32.9717 1.76416 32.015 1.31424 30.825C0.888 29.635 0.55648 28.3283 0.31968 26.905C0.10656 25.4817 0 24.0583 0 22.635C0 21.3983 0.0592001 20.1495 0.1776 18.8895C0.296 17.6061 0.52096 16.4283 0.85248 15.355C1.20768 14.2811 1.69312 13.4183 2.3088 12.765C2.94816 12.0883 3.77696 11.75 4.7952 11.75C5.90816 11.75 6.71328 12.0883 7.21056 12.765C7.70784 13.4183 7.95648 14.1995 7.95648 15.1095C7.95648 15.9733 7.80256 16.825 7.49472 17.6655C7.21056 18.505 6.91456 19.4267 6.60672 20.43C6.32256 21.4333 6.18048 22.6117 6.18048 23.965C6.18048 25.3183 6.23968 26.4267 6.35808 27.29C6.50016 28.13 6.65408 28.83 6.81984 29.39C7.00928 29.9267 7.1632 30.4167 7.2816 30.86C7.42368 31.28 7.49472 31.77 7.49472 32.33C7.49472 33.03 7.26976 33.6133 6.81984 34.08C6.36992 34.5233 5.84896 34.745 5.25696 34.7445ZM16.7299 28.655C16.1379 28.655 15.688 28.7833 15.3802 29.04C15.096 29.2733 14.9539 29.5417 14.9539 29.845C14.9539 30.1483 15.0723 30.4283 15.3091 30.685C15.5696 30.9183 15.9366 31.035 16.4102 31.035C16.9075 31.035 17.2154 30.825 17.3338 30.405C17.4758 29.9617 17.5469 29.5417 17.5469 29.145C17.5469 29.075 17.5469 28.9233 17.5469 28.69C17.2864 28.6667 17.0141 28.655 16.7299 28.655Z" fill="#7A9FCC"/>
<path fill-rule="evenodd" clip-rule="evenodd" d="M28.1016 4C31.6397 4 34.5078 6.8262 34.5078 10.3125C34.5078 13.7988 31.6397 16.625 28.1016 16.625C24.5636 16.6248 21.6953 13.7987 21.6953 10.3125C21.6953 6.82631 24.5636 4.00017 28.1016 4ZM28.168 8.36328C27.0391 8.36328 26.124 9.26556 26.124 10.3779C26.124 11.4903 27.0391 12.3916 28.168 12.3916C29.2968 12.3915 30.2119 11.4902 30.2119 10.3779C30.2119 9.26563 29.2968 8.3634 28.168 8.36328Z" fill="#FECAC9"/>
</g>
<defs>
<filter id="filter0_i_794_102" x="180.961" y="-8.125" width="56.1719" height="48.25" filterUnits="userSpaceOnUse" color-interpolation-filters="sRGB">
<feFlood flood-opacity="0" result="BackgroundImageFix"/>
<feBlend mode="normal" in="SourceGraphic" in2="BackgroundImageFix" result="shape"/>
<feColorMatrix in="SourceAlpha" type="matrix" values="0 0 0 0 0 0 0 0 0 0 0 0 0 0 0 0 0 0 127 0" result="hardAlpha"/>
<feOffset dx="-4" dy="-12"/>
<feGaussianBlur stdDeviation="4"/>
<feComposite in2="hardAlpha" operator="arithmetic" k2="-1" k3="1"/>
<feColorMatrix type="matrix" values="0 0 0 0 0 0 0 0 0 0 0 0 0 0 0 0 0 0 0.12 0"/>
<feBlend mode="normal" in2="shape" result="effect1_innerShadow_794_102"/>
</filter>
<filter id="filter1_f_794_102" x="184.266" y="16.4492" width="23.7578" height="23.6406" filterUnits="userSpaceOnUse" color-interpolation-filters="sRGB">
<feFlood flood-opacity="0" result="BackgroundImageFix"/>
<feBlend mode="normal" in="SourceGraphic" in2="BackgroundImageFix" result="shape"/>
<feGaussianBlur stdDeviation="4" result="effect1_foregroundBlur_794_102"/>
</filter>
<filter id="filter2_f_794_102" x="209.469" y="16.4492" width="23.7578" height="23.6406" filterUnits="userSpaceOnUse" color-interpolation-filters="sRGB">
<feFlood flood-opacity="0" result="BackgroundImageFix"/>
<feBlend mode="normal" in="SourceGraphic" in2="BackgroundImageFix" result="shape"/>
<feGaussianBlur stdDeviation="4" result="effect1_foregroundBlur_794_102"/>
</filter>
<clipPath id="clip0_794_102">
<rect width="237" height="40" fill="white"/>
</clipPath>
</defs>
</svg>
