<svg width="132" height="27" viewBox="0 0 132 27" fill="none" xmlns="http://www.w3.org/2000/svg">
<path d="M131.957 27H122.957V24H125.957V3H122.957V0H131.957V3H128.957V24H131.957V27Z" fill="#A5D8BB"/>
<path d="M110.973 3H101.973V0H110.973V3ZM101.973 27H98.9727V3H101.973V12H110.973V3H113.973V27H110.973V15H101.973V27Z" fill="#A5D8BB"/>
<path d="M74.97 0.0302734V6.03027H89.97V12.0303H86.97V9.03027H74.97V24.0003H71.97V12.0303H66V9.03027H71.97V0.0302734H74.97ZM86.97 15.0303H83.97V12.0303H86.97V15.0303ZM83.97 18.0303H80.97V15.0303H83.97V18.0303ZM89.97 27.0003H74.97V24.0303H89.97V27.0003Z" fill="#A5D8BB"/>
<path d="M47.97 0V6H59.97V23.97H56.97V9H47.97V15H44.97V9H36V6H44.97V0H47.97ZM44.97 21H41.97V15H44.97V21ZM41.97 23.97H38.97V21H41.97V23.97ZM47.97 21H50.97V23.97H47.97V21ZM38.97 26.97H36V24H38.97V26.97ZM56.97 26.97H50.97V24H49.97V26.97Z" fill="#A5D8BB"/>
<path d="M14.97 6.03027V3.03027H17.97V6.03027H14.97ZM8.97 18.0303H5.97V6.03027H8.97V18.0303ZM17.97 12.0303V6.03027H20.97V12.0303H17.97ZM20.97 18.0303V12.0303H23.97V18.0303H20.97ZM5.97 24.0003H2.97V18.0303H5.97V24.0003ZM23.97 27.0003V18.0303H26.97V27.0003H23.97ZM2.97 27.0003H0V24.0303H2.97V27.0003Z" fill="#A5D8BB"/>
</svg>
