<svg width="193" height="41" viewBox="0 0 193 41" fill="none" xmlns="http://www.w3.org/2000/svg">
<path d="M44.5859 35.5699C43.5203 35.5933 42.4666 35.3366 41.4247 34.7999C40.3827 34.2633 39.4355 33.4466 38.5831 32.3499C37.7306 31.2299 37.0557 29.8533 36.5584 28.2199C36.0611 26.5866 35.8125 24.6849 35.8125 22.5149C35.8125 21.6749 35.8599 20.7766 35.9546 19.8199C36.073 18.8399 36.2979 17.9183 36.6295 17.0549C36.961 16.1683 37.4346 15.4449 38.0503 14.8849C38.6896 14.3249 39.5303 14.0449 40.5722 14.0449C41.7562 14.0449 42.6442 14.3599 43.2362 14.9899C43.8282 15.6199 44.1242 16.4133 44.1242 17.3699C44.1242 17.9999 44.065 18.8983 43.9466 20.0649C43.8519 21.2316 43.7808 22.4216 43.7335 23.6349C43.6861 24.8249 43.7571 25.8749 43.9466 26.7849C44.136 27.6949 44.3728 28.3716 44.657 28.8149C44.9648 29.2349 45.2371 29.3516 45.4739 29.1649C46.3501 28.4649 47.2026 28.0449 48.0314 27.9049C48.8602 27.7649 49.5351 27.9049 50.056 28.3249C50.6007 28.7449 50.873 29.4449 50.873 30.4249C50.873 31.0316 50.6599 31.6383 50.2336 32.2449C49.8074 32.8516 49.2627 33.3999 48.5997 33.8899C47.9367 34.3799 47.2381 34.7766 46.504 35.0799C45.7936 35.3833 45.1543 35.5466 44.5859 35.5699ZM58.6163 32.1399C58.0243 32.1399 57.456 32.0116 56.9114 31.7549C56.3904 31.4749 55.9642 31.1016 55.6327 30.6349C55.3248 30.1449 55.1946 29.5733 55.2419 28.9199C55.3367 27.7066 55.3248 26.7149 55.2064 25.9449C55.1117 25.1749 54.9578 24.5333 54.7447 24.0199C54.5552 23.5066 54.3303 23.0399 54.0698 22.6199C53.833 22.1999 53.5962 21.7449 53.3594 21.2549C53.1226 20.7649 52.945 20.1466 52.8266 19.3999C52.6608 18.3733 52.8858 17.5333 53.5015 16.8799C54.1171 16.2266 54.9223 15.8999 55.9168 15.8999C56.864 15.8999 57.7283 16.2149 58.5098 16.8449C59.2912 17.4749 59.9661 18.2799 60.5344 19.2599C61.1027 20.2399 61.5408 21.2783 61.8487 22.3749C62.1565 23.4716 62.3104 24.4983 62.3104 25.4549C62.3104 26.4816 62.1683 27.5083 61.8842 28.5349C61.6237 29.5616 61.2211 30.4249 60.6765 31.1249C60.1319 31.8016 59.4451 32.1399 58.6163 32.1399Z" fill="#7A9FCC"/>
<path d="M16.3392 35.7445C14.9421 35.7445 13.7818 35.4995 12.8582 35.0095C11.9347 34.4961 11.248 33.8428 10.7981 33.0495C10.3482 32.2561 10.135 31.4278 10.1587 30.5645C10.1824 29.6778 10.431 28.8378 10.9046 28.0445C11.3782 27.2511 12.0768 26.6095 13.0003 26.1195C13.9475 25.6061 15.1197 25.3495 16.5168 25.3495C16.8246 25.3495 17.1325 25.3611 17.4403 25.3845C17.4403 25.0345 17.4403 24.7078 17.4403 24.4045C15.7354 24.4045 14.3027 24.3578 13.1424 24.2645C11.9821 24.1711 11.0941 23.9378 10.4784 23.5645C9.8864 23.1911 9.5904 22.5961 9.5904 21.7795C9.5904 20.9628 9.8864 20.3795 10.4784 20.0295C11.0704 19.6561 11.9347 19.4228 13.0714 19.3295C14.2317 19.2128 15.6525 19.1545 17.3338 19.1545C17.3338 18.7345 17.3338 18.3378 17.3338 17.9645C15.5104 17.9645 13.9594 17.9178 12.6806 17.8245C11.4256 17.7078 10.4666 17.4511 9.80352 17.0545C9.16416 16.6345 8.84448 15.9811 8.84448 15.0945C8.84448 14.1145 9.21152 13.4261 9.9456 13.0295C10.7034 12.6328 11.7926 12.3995 13.2134 12.3295C14.6579 12.2361 16.4102 12.1895 18.4704 12.1895C20.5542 12.1895 22.3066 12.2361 23.7274 12.3295C25.1482 12.3995 26.2256 12.6328 26.9597 13.0295C27.7174 13.4261 28.0963 14.1145 28.0963 15.0945C28.0963 16.1445 27.6464 16.8561 26.7466 17.2295C25.8467 17.6028 24.5443 17.8245 22.8394 17.8945C22.8394 18.1045 22.8394 18.3145 22.8394 18.5245C22.8394 18.7345 22.8394 18.9678 22.8394 19.2245C24.3075 19.2945 25.4323 19.5045 26.2138 19.8545C26.9952 20.2045 27.3859 20.8461 27.3859 21.7795C27.3859 22.7128 26.9952 23.3545 26.2138 23.7045C25.4323 24.0545 24.2957 24.2645 22.8038 24.3345C22.8038 25.0578 22.8038 25.8161 22.8038 26.6095C23.7747 27.0761 24.5443 27.6128 25.1126 28.2195C25.681 28.8028 26.0954 29.3745 26.3558 29.9345C26.6163 30.4711 26.7466 30.9145 26.7466 31.2645C26.7466 32.0345 26.5334 32.6528 26.1072 33.1195C25.681 33.5628 25.1718 33.7845 24.5798 33.7845C24.0589 33.7845 23.5971 33.6678 23.1946 33.4345C22.8157 33.1778 22.4486 32.8745 22.0934 32.5245C21.5725 33.5978 20.8147 34.4028 19.8202 34.9395C18.8256 35.4761 17.6653 35.7445 16.3392 35.7445ZM5.25696 35.7445C4.3808 35.7445 3.6112 35.3945 2.94816 34.6945C2.3088 33.9711 1.76416 33.0145 1.31424 31.8245C0.888 30.6345 0.55648 29.3278 0.31968 27.9045C0.10656 26.4811 0 25.0578 0 23.6345C0 22.3978 0.0592001 21.1495 0.1776 19.8895C0.296 18.6061 0.52096 17.4278 0.85248 16.3545C1.20768 15.2811 1.69312 14.4178 2.3088 13.7645C2.94816 13.0878 3.77696 12.7495 4.7952 12.7495C5.90816 12.7495 6.71328 13.0878 7.21056 13.7645C7.70784 14.4178 7.95648 15.1995 7.95648 16.1095C7.95648 16.9728 7.80256 17.8245 7.49472 18.6645C7.21056 19.5045 6.91456 20.4261 6.60672 21.4295C6.32256 22.4328 6.18048 23.6111 6.18048 24.9645C6.18048 26.3178 6.23968 27.4261 6.35808 28.2895C6.50016 29.1295 6.65408 29.8295 6.81984 30.3895C7.00928 30.9261 7.1632 31.4161 7.2816 31.8595C7.42368 32.2795 7.49472 32.7695 7.49472 33.3295C7.49472 34.0295 7.26976 34.6128 6.81984 35.0795C6.36992 35.5228 5.84896 35.7445 5.25696 35.7445ZM16.7299 29.6545C16.1379 29.6545 15.688 29.7828 15.3802 30.0395C15.096 30.2728 14.9539 30.5411 14.9539 30.8445C14.9539 31.1478 15.0723 31.4278 15.3091 31.6845C15.5696 31.9178 15.9366 32.0345 16.4102 32.0345C16.9075 32.0345 17.2154 31.8245 17.3338 31.4045C17.4758 30.9611 17.5469 30.5411 17.5469 30.1445C17.5469 30.0745 17.5469 29.9228 17.5469 29.6895C17.2864 29.6661 17.0141 29.6545 16.7299 29.6545Z" fill="#7A9FCC"/>
<path d="M28.1016 5C31.6397 5 34.5078 7.8262 34.5078 11.3125C34.5078 14.7988 31.6397 17.625 28.1016 17.625C24.5636 17.6248 21.6953 14.7987 21.6953 11.3125C21.6953 7.82631 24.5636 5.00017 28.1016 5ZM28.168 9.36426C27.0391 9.36426 26.124 10.2656 26.124 11.3779C26.124 12.4903 27.0391 13.3916 28.168 13.3916C29.2968 13.3915 30.2119 12.4902 30.2119 11.3779C30.2119 10.2656 29.2968 9.36437 28.168 9.36426Z" fill="#FECAC9"/>
<path d="M113.899 37.052C112.771 37.052 111.943 36.728 111.415 36.08C110.887 35.408 110.551 34.52 110.407 33.416C110.287 32.312 110.227 31.076 110.227 29.708V23.228C108.811 23.228 107.515 23.216 106.339 23.192C105.163 23.144 104.383 23.084 103.999 23.012C102.967 22.82 102.067 22.472 101.299 21.968C100.531 21.44 100.147 20.528 100.147 19.232C100.147 18.392 100.339 17.708 100.723 17.18C101.131 16.652 101.623 16.244 102.199 15.956C102.799 15.668 103.399 15.476 103.999 15.38C104.383 15.308 105.139 15.248 106.267 15.2C107.395 15.152 108.715 15.116 110.227 15.092C110.299 14.036 110.623 13.16 111.199 12.464C111.775 11.744 112.675 11.384 113.899 11.384C115.099 11.384 115.975 11.756 116.527 12.5C117.079 13.244 117.415 14.12 117.535 15.128C119.023 15.152 120.331 15.188 121.459 15.236C122.587 15.26 123.343 15.308 123.727 15.38C124.375 15.476 124.987 15.668 125.563 15.956C126.163 16.244 126.655 16.652 127.039 17.18C127.423 17.708 127.615 18.392 127.615 19.232C127.615 20.096 127.411 20.792 127.003 21.32C126.619 21.824 126.127 22.196 125.527 22.436C124.927 22.676 124.327 22.832 123.727 22.904C123.223 22.952 122.419 23 121.315 23.048C120.211 23.096 118.963 23.132 117.571 23.156V29.708C117.571 31.076 117.511 32.312 117.391 33.416C117.271 34.52 116.947 35.408 116.419 36.08C115.915 36.728 115.075 37.052 113.899 37.052ZM103.387 36.152C102.499 36.152 101.719 35.864 101.047 35.288C100.375 34.688 100.039 33.86 100.039 32.804C100.039 32.132 100.171 31.532 100.435 31.004C100.723 30.476 101.035 29.948 101.371 29.42C101.731 28.868 102.031 28.268 102.271 27.62C102.535 26.876 102.931 26.192 103.459 25.568C103.987 24.944 104.695 24.632 105.583 24.632C106.351 24.632 106.963 24.824 107.419 25.208C107.875 25.592 108.199 26.084 108.391 26.684C108.607 27.26 108.715 27.884 108.715 28.556C108.715 29.78 108.475 30.98 107.995 32.156C107.515 33.308 106.867 34.268 106.051 35.036C105.259 35.78 104.371 36.152 103.387 36.152ZM124.447 36.152C123.415 36.152 122.491 35.78 121.675 35.036C120.859 34.268 120.211 33.308 119.731 32.156C119.251 30.98 118.999 29.78 118.975 28.556C118.975 27.884 119.047 27.26 119.191 26.684C119.335 26.084 119.611 25.592 120.019 25.208C120.451 24.824 121.051 24.632 121.819 24.632C122.875 24.632 123.655 24.944 124.159 25.568C124.687 26.168 125.131 26.852 125.491 27.62C125.803 28.268 126.115 28.868 126.427 29.42C126.763 29.948 127.039 30.488 127.255 31.04C127.495 31.592 127.615 32.216 127.615 32.912C127.615 33.896 127.303 34.688 126.679 35.288C126.055 35.864 125.311 36.152 124.447 36.152ZM125.239 14.12C124.519 14.12 124.039 13.832 123.799 13.256C123.583 12.656 123.475 11.9 123.475 10.988C123.475 10.22 123.595 9.536 123.835 8.936C124.075 8.312 124.567 8 125.311 8C126.607 8 127.255 8.924 127.255 10.772C127.255 11.684 127.111 12.476 126.823 13.148C126.535 13.796 126.007 14.12 125.239 14.12ZM120.775 14.12C120.079 14.12 119.599 13.844 119.335 13.292C119.071 12.716 118.939 11.912 118.939 10.88C118.939 9.992 119.071 9.296 119.335 8.792C119.599 8.264 120.079 8 120.775 8C121.471 8 121.963 8.264 122.251 8.792C122.539 9.296 122.683 10.004 122.683 10.916C122.683 11.924 122.539 12.716 122.251 13.292C121.963 13.844 121.471 14.12 120.775 14.12Z" fill="#7A9FCC"/>
<path d="M82.852 37.017C80.02 37.017 77.752 36.741 76.048 36.189C74.344 35.613 73.048 34.785 72.16 33.705C71.296 32.601 70.72 31.257 70.432 29.673C70.144 28.089 70 26.265 70 24.201C70 22.401 70.144 20.733 70.432 19.197C70.72 17.661 71.284 16.317 72.124 15.165C72.964 13.989 74.2 13.077 75.832 12.429C77.464 11.781 79.624 11.457 82.312 11.457C85.072 11.457 87.292 11.781 88.972 12.429C90.652 13.077 91.924 13.989 92.788 15.165C93.652 16.317 94.228 17.661 94.516 19.197C94.828 20.733 94.984 22.401 94.984 24.201C94.984 26.265 94.84 28.089 94.552 29.673C94.264 31.257 93.7 32.601 92.86 33.705C92.02 34.785 90.796 35.613 89.188 36.189C87.604 36.741 85.492 37.017 82.852 37.017ZM78.208 29.529H86.668V20.457H78.208V29.529Z" fill="#FECAC9"/>
<g filter="url(#filter0_i_1098_13)">
<path d="M184.906 28.2034C189.365 26.6752 196.325 25.6246 188.493 33.6474L184.906 28.2034Z" fill="#FCFBF9"/>
<path d="M190.066 27.014C190.562 27.0189 191.006 27.0826 191.357 27.2288C191.711 27.3762 191.976 27.611 192.095 27.9564C192.211 28.2973 192.176 28.7237 191.981 29.2408C191.592 30.2724 190.543 31.7269 188.583 33.7342L188.473 33.8475L184.711 28.1378L184.864 28.0853C185.983 27.7017 187.261 27.3473 188.428 27.1578C189.011 27.063 189.569 27.009 190.066 27.014ZM190.063 27.264C189.585 27.2592 189.043 27.3113 188.469 27.4046C187.373 27.5826 186.173 27.9102 185.101 28.2703L188.51 33.4464C190.395 31.5021 191.381 30.1152 191.744 29.1539C191.928 28.6651 191.945 28.3019 191.854 28.0362C191.765 27.7751 191.563 27.5862 191.258 27.4591C190.95 27.3307 190.543 27.2688 190.063 27.264Z" fill="#FECAC9"/>
<path d="M147.258 28.2034C142.799 26.6752 135.839 25.6246 143.671 33.6474L147.258 28.2034Z" fill="#FCFBF9"/>
<path d="M142.098 27.014C141.602 27.0189 141.158 27.0826 140.807 27.2288C140.453 27.3762 140.188 27.611 140.069 27.9564C139.953 28.2973 139.988 28.7237 140.183 29.2408C140.572 30.2724 141.621 31.7269 143.581 33.7342L143.692 33.8475L147.453 28.1378L147.3 28.0853C146.181 27.7017 144.903 27.3473 143.736 27.1578C143.153 27.063 142.596 27.009 142.098 27.014ZM142.101 27.264C142.579 27.2592 143.121 27.3113 143.695 27.4046C144.791 27.5826 145.991 27.9102 147.063 28.2703L143.654 33.4464C141.769 31.5021 140.783 30.1152 140.42 29.1539C140.236 28.6651 140.219 28.3019 140.31 28.0362C140.399 27.7751 140.601 27.5862 140.906 27.4591C141.214 27.3307 141.621 27.2688 142.101 27.264Z" fill="#FECAC9"/>
<path d="M186.748 22.1167C188.17 22.6897 190.645 25.0392 189.171 29.8528C189.43 29.8528 189.869 30.1776 189.559 31.4765C190.625 33.6414 191.362 37.5699 185.779 35.9654C183.84 38.1302 178.373 41.6386 172.015 38.3531C169.301 39.6902 162.67 41.5622 157.863 38.3531C155.116 39.9131 148.732 41.6195 145.165 35.9654C143.032 36.7295 139.407 36.9014 141.966 31.4765C141.708 31.0945 141.384 30.1585 142.16 29.4708C141.384 27.688 140.9 23.6257 145.165 21.6391C144.616 17.0865 146.095 7.63758 156.409 6.26226C157.217 3.90638 160.383 -0.232336 166.683 0.149713C168.719 0.245218 173.294 0.799168 176.086 5.6892C180.124 5.30717 187.911 8.05782 186.748 22.1167Z" fill="#FCFBF9"/>
<path d="M156.316 6.14924C157.177 3.74275 160.386 -0.357468 166.693 0.024973L166.693 0.0252172C168.734 0.121139 173.33 0.676801 176.157 5.55793C178.206 5.38736 181.155 6.0042 183.462 8.40168C185.79 10.8226 187.445 15.0391 186.883 22.0369C187.612 22.3568 188.559 23.1 189.162 24.3406C189.778 25.6099 190.029 27.3905 189.334 29.7567C189.473 29.8066 189.61 29.9244 189.697 30.1295C189.813 30.402 189.841 30.8254 189.694 31.4622C189.957 32.0028 190.199 32.6481 190.33 33.2923C190.464 33.9503 190.485 34.6201 190.284 35.1766C190.08 35.7416 189.649 36.1797 188.908 36.3665C188.19 36.5477 187.188 36.4909 185.822 36.1068C183.823 38.2919 178.364 41.7366 172.014 38.4927C170.637 39.1616 168.315 39.9502 165.737 40.1824C163.146 40.4159 160.282 40.0886 157.859 38.4996C156.464 39.2763 154.194 40.0743 151.819 39.9896C149.421 39.904 146.918 38.9179 145.113 36.1158C144.593 36.294 143.994 36.4365 143.416 36.4739C142.804 36.5135 142.199 36.4376 141.739 36.147C141.271 35.851 140.975 35.3455 140.961 34.5762C140.948 33.8254 141.202 32.8183 141.824 31.4854C141.696 31.2746 141.566 30.9521 141.55 30.5938C141.534 30.2157 141.644 29.7979 142.012 29.4388C141.632 28.5232 141.338 27.0784 141.65 25.6058C141.969 24.1014 142.919 22.5766 145.031 21.5655C144.77 19.2695 145.018 15.7932 146.602 12.703C148.202 9.58157 151.163 6.85958 156.316 6.14924ZM166.678 0.274485C160.448 -0.10327 157.325 3.98604 156.531 6.30232L156.506 6.3758L156.428 6.3863C151.316 7.06802 148.402 9.7463 146.828 12.8157C145.252 15.892 145.02 19.3663 145.293 21.6243L145.303 21.7137L145.221 21.7523C143.126 22.7282 142.205 24.2073 141.898 25.6571C141.59 27.1137 141.899 28.5488 142.278 29.4217L142.314 29.504L142.247 29.5638C141.891 29.8792 141.789 30.2471 141.804 30.5828C141.819 30.9238 141.955 31.2317 142.073 31.4073L142.113 31.4656L142.083 31.5294C141.447 32.8783 141.202 33.8645 141.215 34.5718C141.228 35.2721 141.492 35.693 141.876 35.9366C142.27 36.1856 142.811 36.2624 143.399 36.2244C143.984 36.1866 144.598 36.036 145.123 35.848L145.22 35.8133L145.274 35.8995C147.033 38.6868 149.479 39.6557 151.828 39.7396C154.184 39.8237 156.443 39.0162 157.801 38.2449L157.87 38.2059L157.936 38.2496C160.307 39.8324 163.134 40.1659 165.714 39.9334C168.295 39.701 170.615 38.9036 171.96 38.2413L172.018 38.2127L172.075 38.2425C178.361 41.4904 183.767 38.0246 185.686 35.8826L185.739 35.8233L185.816 35.8455C187.203 36.244 188.178 36.2928 188.845 36.1243C189.504 35.9582 189.869 35.5797 190.045 35.0926C190.224 34.5969 190.211 33.9787 190.081 33.3414C189.952 32.7063 189.71 32.0649 189.447 31.5311L189.427 31.4913L189.437 31.4478C189.59 30.8098 189.552 30.4344 189.463 30.2259C189.377 30.0234 189.245 29.9779 189.173 29.9779H189.002L189.052 29.8167C189.781 27.4353 189.529 25.6772 188.933 24.4486C188.335 23.2167 187.384 22.5076 186.702 22.2325L186.616 22.1978L186.624 22.1065C187.203 15.0994 185.551 10.9368 183.277 8.57356C181.002 6.20867 178.087 5.62583 176.1 5.81379L176.017 5.82136L175.977 5.75056C173.218 0.917838 168.701 0.369573 166.679 0.274729L166.678 0.274485Z" fill="#FECAC9"/>
<path d="M169.59 24.7904C169.59 25.4762 169.243 26.032 168.815 26.032C168.386 26.032 168.039 25.4762 168.039 24.7904C168.039 24.1047 168.386 23.5488 168.815 23.5488C169.243 23.5488 169.59 24.1047 169.59 24.7904Z" fill="black"/>
<path d="M159.121 24.7904C159.121 25.4762 158.774 26.032 158.346 26.032C157.917 26.032 157.57 25.4762 157.57 24.7904C157.57 24.1047 157.917 23.5488 158.346 23.5488C158.774 23.5488 159.121 24.1047 159.121 24.7904Z" fill="black"/>
<path d="M163.479 26.7827C163.645 26.9604 163.936 27.1709 164.269 27.2314C164.59 27.2898 164.965 27.2121 165.324 26.7871L165.519 26.9473C165.103 27.4391 164.637 27.5526 164.223 27.4773C163.873 27.4136 163.571 27.2172 163.374 27.0327C162.851 27.4109 162.41 27.5029 162.058 27.4365C161.69 27.367 161.448 27.1289 161.336 26.927L161.558 26.8074C161.641 26.9556 161.825 27.1379 162.106 27.1909C162.384 27.2433 162.784 27.1744 163.307 26.7688L163.4 26.6973L163.479 26.7827Z" fill="black"/>
<g filter="url(#filter1_f_1098_13)">
<path d="M155.051 28.3946C155.051 30.5045 153.315 32.2149 151.174 32.2149C149.033 32.2149 147.297 30.5045 147.297 28.3946C147.297 26.2846 149.033 24.5742 151.174 24.5742C153.315 24.5742 155.051 26.2846 155.051 28.3946Z" fill="#FF9A9A" fill-opacity="0.5"/>
</g>
<g filter="url(#filter2_f_1098_13)">
<path d="M180.254 28.3946C180.254 30.5045 178.519 32.2149 176.377 32.2149C174.236 32.2149 172.5 30.5045 172.5 28.3946C172.5 26.2846 174.236 24.5742 176.377 24.5742C178.519 24.5742 180.254 26.2846 180.254 28.3946Z" fill="#FF9A9A" fill-opacity="0.5"/>
</g>
</g>
<defs>
<filter id="filter0_i_1098_13" x="136" y="-8" width="56.1641" height="48.25" filterUnits="userSpaceOnUse" color-interpolation-filters="sRGB">
<feFlood flood-opacity="0" result="BackgroundImageFix"/>
<feBlend mode="normal" in="SourceGraphic" in2="BackgroundImageFix" result="shape"/>
<feColorMatrix in="SourceAlpha" type="matrix" values="0 0 0 0 0 0 0 0 0 0 0 0 0 0 0 0 0 0 127 0" result="hardAlpha"/>
<feOffset dx="-4" dy="-12"/>
<feGaussianBlur stdDeviation="4"/>
<feComposite in2="hardAlpha" operator="arithmetic" k2="-1" k3="1"/>
<feColorMatrix type="matrix" values="0 0 0 0 0 0 0 0 0 0 0 0 0 0 0 0 0 0 0.12 0"/>
<feBlend mode="normal" in2="shape" result="effect1_innerShadow_1098_13"/>
</filter>
<filter id="filter1_f_1098_13" x="139.297" y="16.5742" width="23.7578" height="23.6406" filterUnits="userSpaceOnUse" color-interpolation-filters="sRGB">
<feFlood flood-opacity="0" result="BackgroundImageFix"/>
<feBlend mode="normal" in="SourceGraphic" in2="BackgroundImageFix" result="shape"/>
<feGaussianBlur stdDeviation="4" result="effect1_foregroundBlur_1098_13"/>
</filter>
<filter id="filter2_f_1098_13" x="164.5" y="16.5742" width="23.7578" height="23.6406" filterUnits="userSpaceOnUse" color-interpolation-filters="sRGB">
<feFlood flood-opacity="0" result="BackgroundImageFix"/>
<feBlend mode="normal" in="SourceGraphic" in2="BackgroundImageFix" result="shape"/>
<feGaussianBlur stdDeviation="4" result="effect1_foregroundBlur_1098_13"/>
</filter>
</defs>
</svg>
