<svg width="107" height="27" viewBox="0 0 107 27" fill="none" xmlns="http://www.w3.org/2000/svg">
<path d="M98.9537 5.66389C98.7612 5.66389 98.6237 5.52642 98.6237 5.33396V0.329936C98.6237 0.137473 98.7612 0 98.9537 0H101.263C101.456 0 101.593 0.137473 101.593 0.329936V5.33396C101.593 5.52642 101.456 5.66389 101.263 5.66389H98.9537ZM106.9 5.33396C106.9 5.52642 106.762 5.66389 106.57 5.66389H104.26C104.068 5.66389 103.93 5.52642 103.93 5.33396V0.329936C103.93 0.137473 104.068 0 104.26 0H106.57C106.762 0 106.9 0.137473 106.9 0.329936V5.33396ZM92.8224 8.00093C93.0148 8.00093 93.1523 7.86346 93.1523 7.671V2.99691C93.1523 2.80445 93.2898 2.66698 93.4822 2.66698H95.9292C96.1217 2.66698 96.2592 2.80445 96.2592 2.99691V7.671C96.2592 7.86346 96.3966 8.00093 96.5891 8.00093H106.597C106.79 8.00093 106.927 8.13841 106.927 8.33087V10.6679C106.927 10.8604 106.79 10.9978 106.597 10.9978H96.5891C96.3966 10.9978 96.2592 11.1353 96.2592 11.3278V26.6698C96.2592 26.8622 96.1217 26.9997 95.9292 26.9997H90.8152C90.6228 26.9997 90.4853 26.8622 90.4853 26.6698V24.3327C90.4853 24.1403 90.6228 24.0028 90.8152 24.0028H92.8224C93.0148 24.0028 93.1523 23.8653 93.1523 23.6729V11.3278C93.1523 11.1353 93.0148 10.9978 92.8224 10.9978H82.8143C82.6218 10.9978 82.4844 10.8604 82.4844 10.6679V8.33087C82.4844 8.13841 82.6218 8.00093 82.8143 8.00093H92.8224ZM87.9283 16.0019C88.1208 16.0019 88.2582 16.1393 88.2582 16.3318V21.3358C88.2582 21.5283 88.1208 21.6658 87.9283 21.6658H85.9212C85.7287 21.6658 85.5913 21.8032 85.5913 21.9957V24.0028C85.5913 24.1953 85.4538 24.3327 85.2613 24.3327H82.8143C82.6218 24.3327 82.4844 24.1953 82.4844 24.0028V21.6658C82.4844 21.4733 82.6218 21.3358 82.8143 21.3358H84.8214C85.0139 21.3358 85.1514 21.1984 85.1514 21.0059V16.3318C85.1514 16.1393 85.2888 16.0019 85.4813 16.0019H87.9283ZM106.597 21.3358C106.79 21.3358 106.927 21.4733 106.927 21.6658V24.0028C106.927 24.1953 106.79 24.3327 106.597 24.3327H104.15C103.958 24.3327 103.82 24.1953 103.82 24.0028V21.9957C103.82 21.8032 103.683 21.6658 103.49 21.6658H101.483C101.291 21.6658 101.153 21.5283 101.153 21.3358V16.3318C101.153 16.1393 101.291 16.0019 101.483 16.0019H103.93C104.123 16.0019 104.26 16.1393 104.26 16.3318V21.0059C104.26 21.1984 104.398 21.3358 104.59 21.3358H106.597Z" fill="#A5D8BB"/>
<path d="M79.1021 5.33398C79.2945 5.33398 79.432 5.47146 79.432 5.66392V24.0028C79.432 24.1953 79.2945 24.3328 79.1021 24.3328H57.9862C57.7937 24.3328 57.6562 24.1953 57.6562 24.0028V5.66392C57.6562 5.47146 57.7937 5.33398 57.9862 5.33398H79.1021ZM76.3251 8.66083C76.3251 8.46837 76.1876 8.3309 75.9952 8.3309H61.0931C60.9006 8.3309 60.7631 8.46837 60.7631 8.66083V21.0059C60.7631 21.1984 60.9006 21.3359 61.0931 21.3359H75.9952C76.1876 21.3359 76.3251 21.1984 76.3251 21.0059V8.66083Z" fill="#A5D8BB"/>
<path d="M32.94 5.33398C33.1325 5.33398 33.27 5.47146 33.27 5.66392V10.6679C33.27 10.8604 33.1325 10.9979 32.94 10.9979H30.9329C30.7405 10.9979 30.603 11.1353 30.603 11.3278V20.9784C30.603 21.1709 30.7405 21.3084 30.9329 21.3084H32.9675C33.16 21.3084 33.2975 21.4458 33.2975 21.6383V23.6729C33.2975 23.8654 33.4349 24.0028 33.6274 24.0028H37.8341C38.0265 24.0028 38.164 23.8654 38.164 23.6729V21.6658C38.164 21.4733 38.3015 21.3359 38.4939 21.3359H40.941C41.1334 21.3359 41.2709 21.4733 41.2709 21.6658V24.0028C41.2709 24.1953 41.1334 24.3328 40.941 24.3328H38.9339C38.7414 24.3328 38.6039 24.4702 38.6039 24.6627V26.6698C38.6039 26.8623 38.4664 26.9997 38.274 26.9997H33.16C32.9675 26.9997 32.83 26.8623 32.83 26.6698V24.6902C32.83 24.4977 32.6926 24.3603 32.5001 24.3603H30.4655C30.2731 24.3603 30.1356 24.2228 30.1356 24.0303V21.9957C30.1356 21.8033 29.9981 21.6658 29.8056 21.6658H27.826C27.6336 21.6658 27.4961 21.5283 27.4961 21.3359V10.9979C27.4961 10.8054 27.6336 10.6679 27.826 10.6679H29.8331C30.0256 10.6679 30.1631 10.5305 30.1631 10.338V5.66392C30.1631 5.47146 30.3005 5.33398 30.493 5.33398H32.94ZM48.9419 8.00096C49.1344 8.00096 49.2718 8.13844 49.2718 8.3309V13.005C49.2718 13.1974 49.4093 13.3349 49.6018 13.3349H51.6089C51.8013 13.3349 51.9388 13.4724 51.9388 13.6649V21.3359C51.9388 21.5283 51.8013 21.6658 51.6089 21.6658H49.1619C48.9694 21.6658 48.8319 21.5283 48.8319 21.3359V13.9948C48.8319 13.8023 48.6944 13.6649 48.502 13.6649H46.4949C46.3024 13.6649 46.1649 13.5274 46.1649 13.3349V8.3309C46.1649 8.13844 46.3024 8.00096 46.4949 8.00096H48.9419Z" fill="#A5D8BB"/>
<path d="M24.0578 2.72167C24.2503 2.72167 24.3877 2.85914 24.3877 3.0516V5.27866C24.3877 5.47113 24.2503 5.6086 24.0578 5.6086H22.1057C21.9132 5.6086 21.7757 5.74607 21.7757 5.93854V8.00063C21.7757 8.19309 21.6383 8.33057 21.4458 8.33057H19.4387C19.2462 8.33057 19.1088 8.46804 19.1088 8.6605V10.3377C19.1088 10.5301 19.2462 10.6676 19.4387 10.6676H21.4458C21.6383 10.6676 21.7757 10.8051 21.7757 10.9975V13.3346C21.7757 13.527 21.6383 13.6645 21.4458 13.6645H19.4387C19.2462 13.6645 19.1088 13.802 19.1088 13.9945V18.3386C19.1088 18.5311 19.2462 18.6685 19.4387 18.6685H21.4458C21.6383 18.6685 21.7757 18.806 21.7757 18.9985V21.0056C21.7757 21.198 21.9132 21.3355 22.1057 21.3355H24.1128C24.3052 21.3355 24.4427 21.473 24.4427 21.6655V24.0025C24.4427 24.195 24.3052 24.3324 24.1128 24.3324H21.6658C21.4733 24.3324 21.3358 24.195 21.3358 24.0025V21.9954C21.3358 21.8029 21.1983 21.6655 21.0059 21.6655H19.4387C19.2462 21.6655 19.1088 21.8029 19.1088 21.9954V24.0025C19.1088 24.195 18.9713 24.3324 18.7788 24.3324H16.7717C16.5793 24.3324 16.4418 24.4699 16.4418 24.6624V26.6695C16.4418 26.8619 16.3043 26.9994 16.1118 26.9994H10.9978C10.8054 26.9994 10.6679 26.8619 10.6679 26.6695V24.6624C10.6679 24.4699 10.5304 24.3324 10.338 24.3324H8.33087C8.13841 24.3324 8.00093 24.195 8.00093 24.0025V18.9985C8.00093 18.806 8.13841 18.6685 8.33087 18.6685H10.338C10.5304 18.6685 10.6679 18.5311 10.6679 18.3386V16.3315C10.6679 16.139 10.8054 16.0016 10.9978 16.0016H15.6719C15.8644 16.0016 16.0019 15.8641 16.0019 15.6716V13.9945C16.0019 13.802 15.8644 13.6645 15.6719 13.6645H8.33087C8.13841 13.6645 8.00093 13.527 8.00093 13.3346V10.9975C8.00093 10.8051 8.13841 10.6676 8.33087 10.6676H15.6719C15.8644 10.6676 16.0019 10.5301 16.0019 10.3377V8.6605C16.0019 8.46804 15.8644 8.33057 15.6719 8.33057H8.33087C8.13841 8.33057 8.00093 8.19309 8.00093 8.00063V5.66359C8.00093 5.47113 8.13841 5.33365 8.33087 5.33365H15.6719C15.8644 5.33365 16.0019 5.19618 16.0019 5.00372V2.99661C16.0019 2.80415 16.1393 2.66668 16.3318 2.66668H18.3939C18.5864 2.66668 18.7238 2.5292 18.7238 2.33674V0.384622C18.7238 0.192161 18.8613 0.0546875 19.0538 0.0546875H21.3908C21.5833 0.0546875 21.7207 0.192161 21.7207 0.384622V2.39173C21.7207 2.58419 21.8582 2.72167 22.0507 2.72167H24.0578ZM5.44393 2.66668C5.6364 2.66668 5.77387 2.80415 5.77387 2.99661V5.33365C5.77387 5.52612 5.6364 5.66359 5.44393 5.66359H3.43683C3.24436 5.66359 3.10689 5.80106 3.10689 5.99353V23.6726C3.10689 23.865 3.24436 24.0025 3.43683 24.0025H5.44393C5.6364 24.0025 5.77387 24.14 5.77387 24.3324V26.6695C5.77387 26.8619 5.6364 26.9994 5.44393 26.9994H2.99691C2.80445 26.9994 2.66698 26.8619 2.66698 26.6695V24.6624C2.66698 24.4699 2.5295 24.3324 2.33704 24.3324H0.329935C0.137473 24.3324 0 24.195 0 24.0025V5.66359C0 5.47113 0.137473 5.33365 0.329935 5.33365H2.33704C2.5295 5.33365 2.66698 5.19618 2.66698 5.00372V2.99661C2.66698 2.80415 2.80445 2.66668 2.99691 2.66668H5.44393ZM19.0538 5.05871C19.0538 5.25117 19.1912 5.38864 19.3837 5.38864H21.0609C21.2533 5.38864 21.3908 5.25117 21.3908 5.05871V3.27156C21.3908 3.0791 21.2533 2.94162 21.0609 2.94162H19.3837C19.1912 2.94162 19.0538 3.0791 19.0538 3.27156V5.05871ZM11.1078 23.6726C11.1078 23.865 11.2453 24.0025 11.4378 24.0025H15.6719C15.8644 24.0025 16.0019 23.865 16.0019 23.6726V19.3284C16.0019 19.136 15.8644 18.9985 15.6719 18.9985H11.4378C11.2453 18.9985 11.1078 19.136 11.1078 19.3284V23.6726Z" fill="#A5D8BB"/>
</svg>
