<svg width="108" height="27" viewBox="0 0 108 27" fill="none" xmlns="http://www.w3.org/2000/svg">
<path d="M88.7641 16.3107C88.5713 16.3107 88.4335 16.4485 88.4335 16.6413V23.6667C88.4335 23.8595 88.5713 23.9973 88.7641 23.9973H104.137C104.33 23.9973 104.468 24.135 104.468 24.3279V26.6697C104.468 26.8625 104.33 27.0003 104.137 27.0003H88.3233C88.1305 27.0003 87.9927 26.8625 87.9927 26.6697V24.6585C87.9927 24.4657 87.8549 24.3279 87.6621 24.3279H85.6509C85.4581 24.3279 85.3203 24.1901 85.3203 23.9973V2.94877C85.3203 2.75592 85.4581 2.61816 85.6509 2.61816H88.1029C88.2958 2.61816 88.4335 2.75592 88.4335 2.94877V12.9771C88.4335 13.17 88.5713 13.3077 88.7641 13.3077H95.6793C95.8721 13.3077 96.0099 13.17 96.0099 12.9771V10.9659C96.0099 10.7731 96.1476 10.6353 96.3405 10.6353H104.137C104.33 10.6353 104.468 10.7731 104.468 10.9659V13.3077C104.468 13.5006 104.33 13.6383 104.137 13.6383H96.7813C96.5884 13.6383 96.4507 13.7761 96.4507 13.9689V15.9801C96.4507 16.173 96.3129 16.3107 96.1201 16.3107H88.7641ZM101.41 2.61816C101.603 2.61816 101.74 2.75592 101.74 2.94877V7.96295C101.74 8.1558 101.603 8.29355 101.41 8.29355H99.068C98.8751 8.29355 98.7374 8.1558 98.7374 7.96295V2.94877C98.7374 2.75592 98.8751 2.61816 99.068 2.61816H101.41ZM106.7551HC106.947 2.61816 107.085 2.75592 107.085 2.94877V7.96295C107.085 8.1558 106.947 8.29355 106.755 8.29355H104.413C104.22 8.29355 104.082 8.1558 104.082 7.96295V2.94877C104.082 2.75592 104.22 2.61816 104.413 2.61816H106.755Z" fill="#A5D8BB"/>
<path d="M65.7909 2.94877C65.7909 2.75592 65.9287 2.61816 66.1215 2.61816H68.5735C68.7664 2.61816 68.9041 2.75592 68.9041 2.94877V10.3047C68.9041 10.4976 69.0419 10.6353 69.2347 10.6353H79.2631C79.4559 10.6353 79.5937 10.7731 79.5937 10.9659V13.3077C79.5937 13.5006 79.4559 13.6383 79.2631 13.6383H69.2347C69.0419 13.6383 68.9041 13.7761 68.9041 13.9689V21.3249C68.9041 21.5178 68.7664 21.6555 68.5735 21.6555H66.5623C66.3695 21.6555 66.2317 21.7933 66.2317 21.9861V23.9697C66.2317 24.1626 66.094 24.3004 65.9011 24.3004H63.9175C63.7246 24.3004 63.5869 24.4381 63.5869 24.631V26.6697C63.5869 26.8625 63.4491 27.0003 63.2563 27.0003H60.7492C60.5563 27.0003 60.4186 26.8625 60.4186 26.6697V24.3004C60.4186 24.1075 60.5563 23.9697 60.7492 23.9697H62.7879C62.9808 23.9697 63.1185 23.832 63.1185 23.6391V21.6555C63.1185 21.4627 63.2563 21.3249 63.4491 21.3249H65.4603C65.6532 21.3249 65.7909 21.1872 65.7909 20.9943V13.9689C65.7909 13.7761 65.6532 13.6383 65.4603 13.6383H55.4595C55.2667 13.6383 55.1289 13.5006 55.1289 13.3077V10.9659C55.1289 10.7731 55.2667 10.6353 55.4595 10.6353H65.4603C65.6532 10.6353 65.7909 10.4976 65.7909 10.3047V2.94877Z" fill="#A5D8BB"/>
<path d="M33.0058 5.29004C33.1986 5.29004 33.3364 5.42779 33.3364 5.62065V10.6348C33.3364 10.8277 33.1986 10.9654 33.0058 10.9654H30.9946C30.8017 10.9654 30.664 11.1032 30.664 11.296V20.9662C30.664 21.1591 30.8017 21.2968 30.9946 21.2968H33.0333C33.2262 21.2968 33.3639 21.4346 33.3639 21.6274V23.6662C33.3639 23.859 33.5017 23.9968 33.6945 23.9968H37.9097C38.1026 23.9968 38.2403 23.859 38.2403 23.6662V21.655C38.2403 21.4621 38.3781 21.3244 38.571 21.3244H41.0229C41.2158 21.3244 41.3535 21.4621 41.3535 21.655V23.9968C41.3535 24.1896 41.2158 24.3274 41.0229 24.3274H39.0118C38.8189 24.3274 38.6812 24.4651 38.6812 24.658V26.6692C38.6812 26.862 38.5434 26.9998 38.3505 26.9998H33.2262C33.0333 26.9998 32.8956 26.862 32.8956 26.6692V24.6855C32.8956 24.4927 32.7578 24.3549 32.565 24.3549H30.5262C30.3334 24.3549 30.1956 24.2172 30.1956 24.0243V21.9856C30.1956 21.7927 30.0579 21.655 29.865 21.655H27.8814C27.6885 21.655 27.5508 21.5172 27.5508 21.3244V10.9654C27.5508 10.7726 27.6885 10.6348 27.8814 10.6348H29.8926C30.0854 10.6348 30.2232 10.4971 30.2232 10.3042V5.62065C30.2232 5.42779 30.3609 5.29004 30.5538 5.29004H33.0058ZM49.0401 7.96243C49.233 7.96243 49.3707 8.10018 49.3707 8.29304V12.9766C49.3707 13.1695 49.5085 13.3072 49.7013 13.3072H51.7125C51.9054 13.3072 52.0431 13.445 52.0431 13.6378V21.3244C52.0431 21.5172 51.9054 21.655 51.7125 21.655H49.2605C49.0677 21.655 48.9299 21.5172 48.9299 21.3244V13.9684C48.9299 13.7756 48.7922 13.6378 48.5993 13.6378H46.5881C46.3953 13.6378 46.2575 13.5001 46.2575 13.3072V8.29304C46.2575 8.10018 46.3953 7.96243 46.5881 7.96243H49.0401Z" fill="#A5D8BB"/>
<path d="M24.1066 2.67239C24.2995 2.67239 24.4372 2.81014 24.4372 3.003V5.23458C24.4372 5.42743 24.2995 5.56519 24.1066 5.56519H22.1505C21.9577 5.56519 21.8199 5.70294 21.8199 5.89579V7.96207C21.8199 8.15493 21.6822 8.29268 21.4893 8.29268H19.4782C19.2853 8.29268 19.1475 8.43043 19.1475 8.62328V10.3039C19.1475 10.4967 19.2853 10.6345 19.4782 10.6345H21.4893C21.6822 10.6345 21.8199 10.7722 21.8199 10.9651V13.3069C21.8199 13.4997 21.6822 13.6375 21.4893 13.6375H19.4782C19.2853 13.6375 19.1475 13.7752 19.1475 13.9681V18.321C19.1475 18.5139 19.2853 18.6516 19.4782 18.6516H21.4893C21.6822 18.6516 21.8199 18.7894 21.8199 18.9822V20.9934C21.8199 21.1863 21.9577 21.324 22.1505 21.324H24.1617C24.3546 21.324 24.4923 21.4618 24.4923 21.6546V23.9964C24.4923 24.1893 24.3546 24.327 24.1617 24.327H21.7097C21.5169 24.327 21.3791 24.1893 21.3791 23.9964V21.9852C21.3791 21.7924 21.2414 21.6546 21.0485 21.6546H19.4782C19.2853 21.6546 19.1475 21.7924 19.1475 21.9852V23.9964C19.1475 24.1893 19.0098 24.327 18.8169 24.327H16.8058C16.6129 24.327 16.4752 24.4648 16.4752 24.6576V26.6688C16.4752 26.8617 16.3374 26.9994 16.1445 26.9994H11.0202C10.8273 26.9994 10.6896 26.8617 10.6896 26.6688V24.6576C10.6896 24.4648 10.5518 24.327 10.359 24.327H8.34778C8.15493 24.327 8.01717 24.1893 8.01717 23.9964V18.9822C8.01717 18.7894 8.15493 18.6516 8.34778 18.6516H10.359C10.5518 18.6516 10.6896 18.5139 10.6896 18.321V16.3099C10.6896 16.117 10.8273 15.9792 11.0202 15.9792H15.7037C15.8966 15.9792 16.0343 15.8415 16.0343 15.6486V13.9681C16.0343 13.7752 15.8966 13.6375 15.7037 13.6375H8.34778C8.15493 13.6375 8.01717 13.4997 8.01717 13.3069V10.9651C8.01717 10.7722 8.15493 10.6345 8.34778 10.6345H15.7037C15.8966 10.6345 16.0343 10.4967 16.0343 10.3039V8.62328C16.0343 8.43043 15.8966 8.29268 15.7037 8.29268H8.34778C8.15493 8.29268 8.01717 8.15493 8.01717 7.96207V5.62029C8.01717 5.42743 8.15493 5.28968 8.34778 5.28968H15.7037C15.8966 5.28968 16.0343 5.15193 16.0343 4.95908V2.9479C16.0343 2.75504 16.1721 2.61729 16.365 2.61729H18.4312C18.6241 2.61729 18.7618 2.47954 18.7618 2.28669V0.330604C18.7618 0.137752 18.8996 0 19.0924 0H21.4342C21.6271 0 21.7648 0.137752 21.7648 0.330604V2.34179C21.7648 2.53464 21.9026 2.67239 22.0954 2.67239H24.1066ZM5.45498 2.61729C5.64784 2.61729 5.78559 2.75504 5.78559 2.9479V5.28968C5.78559 5.48253 5.64784 5.62029 5.45498 5.62029H3.4438C3.25095 5.62029 3.1132 5.75804 3.1132 5.95089V23.6658C3.1132 23.8587 3.25095 23.9964 3.4438 23.9964H5.45498C5.64784 23.9964 5.78559 24.1342 5.78559 24.327V26.6688C5.78559 26.8617 5.64784 26.9994 5.45498 26.9994H3.003C2.81014 26.9994 2.67239 26.8617 2.67239 26.6688V24.6576C2.67239 24.4648 2.53464 24.327 2.34179 24.327H0.330605C0.137752 24.327 0 24.1893 0 23.9964V5.62029C0 5.42743 0.137752 5.28968 0.330605 5.28968H2.34179C2.53464 5.28968 2.67239 5.15193 2.67239 4.95908V2.9479C2.67239 2.75504 2.81014 2.61729 3.003 2.61729H5.45498ZM19.0924 5.01418C19.0924 5.20703 19.2302 5.34478 19.4231 5.34478H21.1036C21.2965 5.34478 21.4342 5.20703 21.4342 5.01418V3.2234C21.4342 3.03055 21.2965 2.8928 21.1036 2.8928H19.4231C19.2302 2.8928 19.0924 3.03055 19.0924 3.2234V5.01418ZM11.1304 23.6658C11.1304 23.8587 11.2681 23.9964 11.461 23.9964H15.7037C15.8966 23.9964 16.0343 23.8587 16.0343 23.6658V19.3128C16.0343 19.12 15.8966 18.9822 15.7037 18.9822H11.461C11.2681 18.9822 11.1304 19.12 11.1304 19.3128V23.6658Z" fill="#A5D8BB"/>
</svg>
