<svg width="193" height="41" viewBox="0 0 193 41" fill="none" xmlns="http://www.w3.org/2000/svg">
<path d="M44.5859 35.5699C43.5203 35.5933 42.4666 35.3366 41.4247 34.7999C40.3827 34.2633 39.4355 33.4466 38.5831 32.3499C37.7306 31.2299 37.0557 29.8533 36.5584 28.2199C36.0611 26.5866 35.8125 24.6849 35.8125 22.5149C35.8125 21.6749 35.8599 20.7766 35.9546 19.8199C36.073 18.8399 36.2979 17.9183 36.6295 17.0549C36.961 16.1683 37.4346 15.4449 38.0503 14.8849C38.6896 14.3249 39.5303 14.0449 40.5722 14.0449C41.7562 14.0449 42.6442 14.3599 43.2362 14.9899C43.8282 15.6199 44.1242 16.4133 44.1242 17.3699C44.1242 17.9999 44.065 18.8983 43.9466 20.0649C43.8519 21.2316 43.7808 22.4216 43.7335 23.6349C43.6861 24.8249 43.7571 25.8749 43.9466 26.7849C44.136 27.6949 44.3728 28.3716 44.657 28.8149C44.9648 29.2349 45.2371 29.3516 45.4739 29.1649C46.3501 28.4649 47.2026 28.0449 48.0314 27.9049C48.8602 27.7649 49.5351 27.9049 50.056 28.3249C50.6007 28.7449 50.873 29.4449 50.873 30.4249C50.873 31.0316 50.6599 31.6383 50.2336 32.2449C49.8074 32.8516 49.2627 33.3999 48.5997 33.8899C47.9367 34.3799 47.2381 34.7766 46.504 35.0799C45.7936 35.3833 45.1543 35.5466 44.5859 35.5699ZM58.6163 32.1399C58.0243 32.1399 57.456 32.0116 56.9114 31.7549C56.3904 31.4749 55.9642 31.1016 55.6327 30.6349C55.3248 30.1449 55.1946 29.5733 55.2419 28.9199C55.3367 27.7066 55.3248 26.7149 55.2064 25.9449C55.1117 25.1749 54.9578 24.5333 54.7447 24.0199C54.5552 23.5066 54.3303 23.0399 54.0698 22.6199C53.833 22.1999 53.5962 21.7449 53.3594 21.2549C53.1226 20.7649 52.945 20.1466 52.8266 19.3999C52.6608 18.3733 52.8858 17.5333 53.5015 16.8799C54.1171 16.2266 54.9223 15.8999 55.9168 15.8999C56.864 15.8999 57.7283 16.2149 58.5098 16.8449C59.2912 17.4749 59.9661 18.2799 60.5344 19.2599C61.1027 20.2399 61.5408 21.2783 61.8487 22.3749C62.1565 23.4716 62.3104 24.4983 62.3104 25.4549C62.3104 26.4816 62.1683 27.5083 61.8842 28.5349C61.6237 29.5616 61.2211 30.4249 60.6765 31.1249C60.1319 31.8016 59.4451 32.1399 58.6163 32.1399Z" fill="#7A9FCC"/>
<path d="M16.3392 35.7445C14.9421 35.7445 13.7818 35.4995 12.8582 35.0095C11.9347 34.4961 11.248 33.8428 10.7981 33.0495C10.3482 32.2561 10.135 31.4278 10.1587 30.5645C10.1824 29.6778 10.431 28.8378 10.9046 28.0445C11.3782 27.2511 12.0768 26.6095 13.0003 26.1195C13.9475 25.6061 15.1197 25.3495 16.5168 25.3495C16.8246 25.3495 17.1325 25.3611 17.4403 25.3845C17.4403 25.0345 17.4403 24.7078 17.4403 24.4045C15.7354 24.4045 14.3027 24.3578 13.1424 24.2645C11.9821 24.1711 11.0941 23.9378 10.4784 23.5645C9.8864 23.1911 9.5904 22.5961 9.5904 21.7795C9.5904 20.9628 9.8864 20.3795 10.4784 20.0295C11.0704 19.6561 11.9347 19.4228 13.0714 19.3295C14.2317 19.2128 15.6525 19.1545 17.3338 19.1545C17.3338 18.7345 17.3338 18.3378 17.3338 17.9645C15.5104 17.9645 13.9594 17.9178 12.6806 17.8245C11.4256 17.7078 10.4666 17.4511 9.80352 17.0545C9.16416 16.6345 8.84448 15.9811 8.84448 15.0945C8.84448 14.1145 9.21152 13.4261 9.9456 13.0295C10.7034 12.6328 11.7926 12.3995 13.2134 12.3295C14.6579 12.2361 16.4102 12.1895 18.4704 12.1895C20.5542 12.1895 22.3066 12.2361 23.7274 12.3295C25.1482 12.3995 26.2256 12.6328 26.9597 13.0295C27.7174 13.4261 28.0963 14.1145 28.0963 15.0945C28.0963 16.1445 27.6464 16.8561 26.7466 17.2295C25.8467 17.6028 24.5443 17.8245 22.8394 17.8945C22.8394 18.1045 22.8394 18.3145 22.8394 18.5245C22.8394 18.7345 22.8394 18.9678 22.8394 19.2245C24.3075 19.2945 25.4323 19.5045 26.2138 19.8545C26.9952 20.2045 27.3859 20.8461 27.3859 21.7795C27.3859 22.7128 26.9952 23.3545 26.2138 23.7045C25.4323 24.0545 24.2957 24.2645 22.8038 24.3345C22.8038 25.0578 22.8038 25.8161 22.8038 26.6095C23.7747 27.0761 24.5443 27.6128 25.1126 28.2195C25.681 28.8028 26.0954 29.3745 26.3558 29.9345C26.6163 30.4711 26.7466 30.9145 26.7466 31.2645C26.7466 32.0345 26.5334 32.6528 26.1072 33.1195C25.681 33.5628 25.1718 33.7845 24.5798 33.7845C24.0589 33.7845 23.5971 33.6678 23.1946 33.4345C22.8157 33.1778 22.4486 32.8745 22.0934 32.5245C21.5725 33.5978 20.8147 34.4028 19.8202 34.9395C18.8256 35.4761 17.6653 35.7445 16.3392 35.7445ZM5.25696 35.7445C4.3808 35.7445 3.6112 35.3945 2.94816 34.6945C2.3088 33.9711 1.76416 33.0145 1.31424 31.8245C0.888 30.6345 0.55648 29.3278 0.31968 27.9045C0.10656 26.4811 0 25.0578 0 23.6345C0 22.3978 0.0592001 21.1495 0.1776 19.8895C0.296 18.6061 0.52096 17.4278 0.85248 16.3545C1.20768 15.2811 1.69312 14.4178 2.3088 13.7645C2.94816 13.0878 3.77696 12.7495 4.7952 12.7495C5.90816 12.7495 6.71328 13.0878 7.21056 13.7645C7.70784 14.4178 7.95648 15.1995 7.95648 16.1095C7.95648 16.9728 7.80256 17.8245 7.49472 18.6645C7.21056 19.5045 6.91456 20.4261 6.60672 21.4295C6.32256 22.4328 6.18048 23.6111 6.18048 24.9645C6.18048 26.3178 6.23968 27.4261 6.35808 28.2895C6.50016 29.1295 6.65408 29.8295 6.81984 30.3895C7.00928 30.9261 7.1632 31.4161 7.2816 31.8595C7.42368 32.2795 7.49472 32.7695 7.49472 33.3295C7.49472 34.0295 7.26976 34.6128 6.81984 35.0795C6.36992 35.5228 5.84896 35.7445 5.25696 35.7445ZM16.7299 29.6545C16.1379 29.6545 15.688 29.7828 15.3802 30.0395C15.096 30.2728 14.9539 30.5411 14.9539 30.8445C14.9539 31.1478 15.0723 31.4278 15.3091 31.6845C15.5696 31.9178 15.9366 32.0345 16.4102 32.0345C16.9075 32.0345 17.2154 31.8245 17.3338 31.4045C17.4758 30.9611 17.5469 30.5411 17.5469 30.1445C17.5469 30.0745 17.5469 29.9228 17.5469 29.6895C17.2864 29.6661 17.0141 29.6545 16.7299 29.6545Z" fill="#7A9FCC"/>
<path d="M28.1016 5C31.6397 5 34.5078 7.8262 34.5078 11.3125C34.5078 14.7988 31.6397 17.625 28.1016 17.625C24.5636 17.6248 21.6953 14.7987 21.6953 11.3125C21.6953 7.82631 24.5636 5.00017 28.1016 5ZM28.168 9.36426C27.0391 9.36426 26.124 10.2656 26.124 11.3779C26.124 12.4903 27.0391 13.3916 28.168 13.3916C29.2968 13.3915 30.2119 12.4902 30.2119 11.3779C30.2119 10.2656 29.2968 9.36437 28.168 9.36426Z" fill="#FECAC9"/>
<path d="M117.196 35.8348C116.205 35.8348 115.141 35.7381 114.005 35.5447C112.868 35.3271 111.744 34.9523 110.632 34.4205C109.544 33.8644 108.541 33.0787 107.622 32.0633C106.728 31.0237 106.002 29.682 105.446 28.038C104.914 26.394 104.648 24.3753 104.648 21.9819C104.648 21.1358 104.661 20.2291 104.685 19.2621C104.733 18.2951 104.806 17.3401 104.902 16.3973C105.023 15.4302 105.204 14.5599 105.446 13.7862C105.64 13.1818 105.881 12.6137 106.172 12.0818C106.486 11.55 106.897 11.1148 107.405 10.7763C107.936 10.4137 108.613 10.2324 109.435 10.2324C110.62 10.2324 111.514 10.5587 112.119 11.2115C112.723 11.8642 113.134 12.7225 113.352 13.7862C113.449 14.2698 113.521 14.8016 113.569 15.3819C113.642 15.9621 113.69 16.5544 113.714 17.1588C116.374 17.1588 118.61 17.183 120.423 17.2313C122.261 17.2555 123.772 17.3522 124.956 17.5214C125.996 17.6665 126.757 18.0654 127.241 18.7181C127.749 19.3467 128.002 20.0478 128.002 20.8215C128.002 21.5709 127.749 22.2841 127.241 22.961C126.757 23.6138 125.996 23.9885 124.956 24.0852C123.772 24.1819 122.273 24.2424 120.46 24.2665C118.646 24.2665 116.422 24.2665 113.787 24.2665C113.811 25.0402 113.86 25.7896 113.932 26.5149C114.029 27.4094 114.44 28.038 115.165 28.4006C115.89 28.7633 116.894 28.9688 118.175 29.0171C119.456 29.0655 120.979 29.0897 122.744 29.0897C123.542 29.0897 124.291 29.1743 124.993 29.3435C125.718 29.4886 126.31 29.7908 126.769 30.2501C127.229 30.6853 127.459 31.3501 127.459 32.2446C127.459 33.0666 127.144 33.7194 126.516 34.2029C125.911 34.6864 125.101 35.049 124.086 35.2908C123.071 35.5326 121.958 35.6897 120.75 35.7622C119.565 35.8106 118.38 35.8348 117.196 35.8348ZM125.899 16.1434C125.174 16.1434 124.69 15.8533 124.449 15.2731C124.231 14.6687 124.122 13.9071 124.122 12.9884C124.122 12.2148 124.243 11.5258 124.485 10.9214C124.727 10.2928 125.222 9.97852 125.972 9.97852C127.277 9.97852 127.93 10.9093 127.93 12.7708C127.93 13.6895 127.785 14.4873 127.495 15.1643C127.205 15.817 126.673 16.1434 125.899 16.1434ZM121.402 16.1434C120.701 16.1434 120.218 15.8654 119.952 15.3093C119.686 14.7291 119.553 13.9192 119.553 12.8796C119.553 11.9851 119.686 11.284 119.952 10.7763C120.218 10.2445 120.701 9.97852 121.402 9.97852C122.104 9.97852 122.599 10.2445 122.889 10.7763C123.179 11.284 123.324 11.9972 123.324 12.9159C123.324 13.9313 123.179 14.7291 122.889 15.3093C122.599 15.8654 122.104 16.1434 121.402 16.1434Z" fill="#7A9FCC"/>
<path d="M78.8847 35.7978C77.9902 35.7978 77.1561 35.5923 76.3825 35.1813C75.633 34.7461 75.2583 34.0813 75.2583 33.1868C75.2583 31.5428 76.2858 30.2977 78.3407 29.4516C79.2352 29.0648 79.8759 28.5571 80.2627 27.9285C80.6737 27.2757 80.9396 26.5263 81.0605 25.6801C78.5704 25.6318 76.5033 25.5109 74.8594 25.3175C73.2396 25.0999 72.0187 24.6768 71.1967 24.0482C70.3989 23.4197 70 22.4768 70 21.2196C70 19.9383 70.411 18.9954 71.233 18.391C72.055 17.7625 73.2879 17.3394 74.9319 17.1218C76.6001 16.9042 78.6792 16.7833 81.1693 16.7592V15.635C81.1693 14.1119 81.532 12.8668 82.2572 11.8998C83.0067 10.9327 84.0704 10.4492 85.4485 10.4492C86.9474 10.4492 88.0111 10.9207 88.6397 11.8635C89.2683 12.8064 89.5826 14.0635 89.5826 15.635C89.5826 15.8284 89.5826 16.0218 89.5826 16.2152C89.5826 16.4086 89.5826 16.602 89.5826 16.7954C91.8068 16.8438 93.6562 16.9888 95.131 17.2306C96.6057 17.4482 97.7057 17.8713 98.431 18.4998C99.1805 19.1042 99.5552 20.0108 99.5552 21.2196C99.5552 22.4284 99.1805 23.3471 98.431 23.9757C97.6815 24.6043 96.5574 25.0394 95.0584 25.2812C93.5595 25.4988 91.6738 25.6197 89.4013 25.6439C89.3046 26.7318 89.1716 27.6021 89.0024 28.2549C88.5188 29.923 87.7452 31.3131 86.6815 32.4252C85.6419 33.5373 84.4452 34.3835 83.0913 34.9637C81.7375 35.5198 80.3352 35.7978 78.8847 35.7978Z" fill="#FECAC9"/>
<g filter="url(#filter0_i_846_91)">
<path d="M184.898 28.2034C189.357 26.6752 196.317 25.6246 188.485 33.6474L184.898 28.2034Z" fill="#FCFBF9"/>
<path d="M190.066 27.014C190.562 27.0189 191.006 27.0826 191.357 27.2288C191.711 27.3762 191.976 27.611 192.095 27.9564C192.211 28.2973 192.176 28.7237 191.981 29.2408C191.592 30.2724 190.543 31.7269 188.583 33.7342L188.473 33.8475L184.711 28.1378L184.864 28.0853C185.983 27.7017 187.261 27.3473 188.428 27.1578C189.011 27.063 189.569 27.009 190.066 27.014ZM190.063 27.264C189.585 27.2592 189.043 27.3113 188.469 27.4046C187.373 27.5826 186.173 27.9102 185.101 28.2703L188.51 33.4464C190.395 31.5021 191.381 30.1152 191.744 29.1539C191.928 28.6651 191.945 28.3019 191.854 28.0362C191.765 27.7751 191.563 27.5862 191.258 27.4591C190.95 27.3307 190.543 27.2688 190.063 27.264Z" fill="#FECAC9"/>
<path d="M147.25 28.2034C142.791 26.6752 135.832 25.6246 143.664 33.6474L147.25 28.2034Z" fill="#FCFBF9"/>
<path d="M142.09 27.014C141.594 27.0189 141.15 27.0826 140.799 27.2288C140.445 27.3762 140.18 27.611 140.062 27.9564C139.945 28.2973 139.98 28.7237 140.175 29.2408C140.564 30.2724 141.613 31.7269 143.573 33.7342L143.684 33.8475L147.445 28.1378L147.292 28.0853C146.173 27.7017 144.895 27.3473 143.729 27.1578C143.145 27.063 142.588 27.009 142.09 27.014ZM142.093 27.264C142.571 27.2592 143.113 27.3113 143.687 27.4046C144.783 27.5826 145.983 27.9102 147.056 28.2703L143.646 33.4464C141.762 31.5021 140.775 30.1152 140.412 29.1539C140.228 28.6651 140.211 28.3019 140.302 28.0362C140.391 27.7751 140.593 27.5862 140.898 27.4591C141.206 27.3307 141.613 27.2688 142.093 27.264Z" fill="#FECAC9"/>
<path d="M186.748 22.1167C188.17 22.6897 190.645 25.0392 189.171 29.8528C189.43 29.8528 189.869 30.1776 189.559 31.4765C190.625 33.6414 191.362 37.5699 185.779 35.9654C183.84 38.1302 178.373 41.6386 172.015 38.3531C169.301 39.6902 162.67 41.5622 157.863 38.3531C155.116 39.9131 148.732 41.6195 145.165 35.9654C143.032 36.7295 139.407 36.9014 141.966 31.4765C141.708 31.0945 141.384 30.1585 142.16 29.4708C141.384 27.688 140.9 23.6257 145.165 21.6391C144.616 17.0865 146.095 7.63758 156.409 6.26226C157.217 3.90638 160.383 -0.232336 166.683 0.149713C168.719 0.245218 173.294 0.799168 176.086 5.6892C180.124 5.30717 187.911 8.05782 186.748 22.1167Z" fill="#FCFBF9"/>
<path d="M156.316 6.14924C157.177 3.74275 160.386 -0.357468 166.693 0.024973L166.693 0.0252172C168.734 0.121139 173.33 0.676801 176.157 5.55793C178.206 5.38736 181.155 6.0042 183.462 8.40168C185.79 10.8226 187.445 15.0391 186.883 22.0369C187.612 22.3568 188.559 23.1 189.162 24.3406C189.778 25.6099 190.029 27.3905 189.334 29.7567C189.473 29.8066 189.61 29.9244 189.697 30.1295C189.813 30.402 189.841 30.8254 189.694 31.4622C189.957 32.0028 190.199 32.6481 190.33 33.2923C190.464 33.9503 190.485 34.6201 190.284 35.1766C190.08 35.7416 189.649 36.1797 188.908 36.3665C188.19 36.5477 187.188 36.4909 185.822 36.1068C183.823 38.2919 178.364 41.7366 172.014 38.4927C170.637 39.1616 168.315 39.9502 165.737 40.1824C163.146 40.4159 160.282 40.0886 157.859 38.4996C156.464 39.2763 154.194 40.0743 151.819 39.9896C149.421 39.904 146.918 38.9179 145.113 36.1158C144.593 36.294 143.994 36.4365 143.416 36.4739C142.804 36.5135 142.199 36.4376 141.739 36.147C141.271 35.851 140.975 35.3455 140.961 34.5762C140.948 33.8254 141.202 32.8183 141.824 31.4854C141.696 31.2746 141.566 30.9521 141.55 30.5938C141.534 30.2157 141.644 29.7979 142.012 29.4388C141.632 28.5232 141.338 27.0784 141.65 25.6058C141.969 24.1014 142.919 22.5766 145.031 21.5655C144.77 19.2695 145.018 15.7932 146.602 12.703C148.202 9.58157 151.163 6.85958 156.316 6.14924ZM166.678 0.274485C160.448 -0.10327 157.325 3.98604 156.531 6.30232L156.506 6.3758L156.428 6.3863C151.316 7.06802 148.402 9.7463 146.828 12.8157C145.252 15.892 145.02 19.3663 145.293 21.6243L145.303 21.7137L145.221 21.7523C143.126 22.7282 142.205 24.2073 141.898 25.6571C141.59 27.1137 141.899 28.5488 142.278 29.4217L142.314 29.504L142.247 29.5638C141.891 29.8792 141.789 30.2471 141.804 30.5828C141.819 30.9238 141.955 31.2317 142.073 31.4073L142.113 31.4656L142.083 31.5294C141.447 32.8783 141.202 33.8645 141.215 34.5718C141.228 35.2721 141.492 35.693 141.876 35.9366C142.27 36.1856 142.811 36.2624 143.399 36.2244C143.984 36.1866 144.598 36.036 145.123 35.848L145.22 35.8133L145.274 35.8995C147.033 38.6868 149.479 39.6557 151.828 39.7396C154.184 39.8237 156.443 39.0162 157.801 38.2449L157.87 38.2059L157.936 38.2496C160.307 39.8324 163.134 40.1659 165.714 39.9334C168.295 39.701 170.615 38.9036 171.96 38.2413L172.018 38.2127L172.075 38.2425C178.361 41.4904 183.767 38.0246 185.686 35.8826L185.739 35.8233L185.816 35.8455C187.203 36.244 188.178 36.2928 188.845 36.1243C189.504 35.9582 189.869 35.5797 190.045 35.0926C190.224 34.5969 190.211 33.9787 190.081 33.3414C189.952 32.7063 189.71 32.0649 189.447 31.5311L189.427 31.4913L189.437 31.4478C189.59 30.8098 189.552 30.4344 189.463 30.2259C189.377 30.0234 189.245 29.9779 189.173 29.9779H189.002L189.052 29.8167C189.781 27.4353 189.529 25.6772 188.933 24.4486C188.335 23.2167 187.384 22.5076 186.702 22.2325L186.616 22.1978L186.624 22.1065C187.203 15.0994 185.551 10.9368 183.277 8.57356C181.002 6.20867 178.087 5.62583 176.1 5.81379L176.017 5.82136L175.977 5.75056C173.218 0.917838 168.701 0.369573 166.679 0.274729L166.678 0.274485Z" fill="#FECAC9"/>
<path d="M169.59 24.7904C169.59 25.4762 169.243 26.032 168.815 26.032C168.386 26.032 168.039 25.4762 168.039 24.7904C168.039 24.1047 168.386 23.5488 168.815 23.5488C169.243 23.5488 169.59 24.1047 169.59 24.7904Z" fill="black"/>
<path d="M159.121 24.7904C159.121 25.4762 158.774 26.032 158.346 26.032C157.917 26.032 157.57 25.4762 157.57 24.7904C157.57 24.1047 157.917 23.5488 158.346 23.5488C158.774 23.5488 159.121 24.1047 159.121 24.7904Z" fill="black"/>
<path d="M163.479 26.7827C163.645 26.9604 163.936 27.1709 164.269 27.2314C164.59 27.2898 164.965 27.2121 165.324 26.7871L165.519 26.9473C165.103 27.4391 164.637 27.5526 164.223 27.4773C163.873 27.4136 163.571 27.2172 163.374 27.0327C162.851 27.4109 162.41 27.5029 162.058 27.4365C161.69 27.367 161.448 27.1289 161.336 26.927L161.558 26.8074C161.641 26.9556 161.825 27.1379 162.106 27.1909C162.384 27.2433 162.784 27.1744 163.307 26.7688L163.4 26.6973L163.479 26.7827Z" fill="black"/>
<g filter="url(#filter1_f_846_91)">
<path d="M155.051 28.3946C155.051 30.5045 153.315 32.2149 151.174 32.2149C149.033 32.2149 147.297 30.5045 147.297 28.3946C147.297 26.2846 149.033 24.5742 151.174 24.5742C153.315 24.5742 155.051 26.2846 155.051 28.3946Z" fill="#FF9A9A" fill-opacity="0.5"/>
</g>
<g filter="url(#filter2_f_846_91)">
<path d="M180.254 28.3946C180.254 30.5045 178.519 32.2149 176.377 32.2149C174.236 32.2149 172.5 30.5045 172.5 28.3946C172.5 26.2846 174.236 24.5742 176.377 24.5742C178.519 24.5742 180.254 26.2846 180.254 28.3946Z" fill="#FF9A9A" fill-opacity="0.5"/>
</g>
</g>
<defs>
<filter id="filter0_i_846_91" x="135.992" y="-8" width="56.1719" height="48.25" filterUnits="userSpaceOnUse" color-interpolation-filters="sRGB">
<feFlood flood-opacity="0" result="BackgroundImageFix"/>
<feBlend mode="normal" in="SourceGraphic" in2="BackgroundImageFix" result="shape"/>
<feColorMatrix in="SourceAlpha" type="matrix" values="0 0 0 0 0 0 0 0 0 0 0 0 0 0 0 0 0 0 127 0" result="hardAlpha"/>
<feOffset dx="-4" dy="-12"/>
<feGaussianBlur stdDeviation="4"/>
<feComposite in2="hardAlpha" operator="arithmetic" k2="-1" k3="1"/>
<feColorMatrix type="matrix" values="0 0 0 0 0 0 0 0 0 0 0 0 0 0 0 0 0 0 0.12 0"/>
<feBlend mode="normal" in2="shape" result="effect1_innerShadow_846_91"/>
</filter>
<filter id="filter1_f_846_91" x="139.297" y="16.5742" width="23.7578" height="23.6406" filterUnits="userSpaceOnUse" color-interpolation-filters="sRGB">
<feFlood flood-opacity="0" result="BackgroundImageFix"/>
<feBlend mode="normal" in="SourceGraphic" in2="BackgroundImageFix" result="shape"/>
<feGaussianBlur stdDeviation="4" result="effect1_foregroundBlur_846_91"/>
</filter>
<filter id="filter2_f_846_91" x="164.5" y="16.5742" width="23.7578" height="23.6406" filterUnits="userSpaceOnUse" color-interpolation-filters="sRGB">
<feFlood flood-opacity="0" result="BackgroundImageFix"/>
<feBlend mode="normal" in="SourceGraphic" in2="BackgroundImageFix" result="shape"/>
<feGaussianBlur stdDeviation="4" result="effect1_foregroundBlur_846_91"/>
</filter>
</defs>
</svg>
