<svg width="107" height="20" viewBox="0 0 107 20" fill="none" xmlns="http://www.w3.org/2000/svg">
<path d="M100.278 19.8598C99.6225 19.8598 98.9578 19.8505 98.2836 19.8317C97.6095 19.7943 96.9915 19.7007 96.4297 19.5508C95.8679 19.401 95.4091 19.1482 95.0533 18.7924C94.7162 18.4366 94.5477 17.9404 94.5477 17.3037C94.5477 16.4797 94.8286 15.8992 95.3904 15.5621C95.9521 15.2063 96.6357 14.9722 97.4409 14.8598C97.3847 14.2044 97.3473 13.4928 97.3285 12.725C97.3098 11.9385 97.3005 11.0958 97.3005 10.1969C97.3005 9.37298 97.3098 8.59583 97.3285 7.86549C97.3473 7.11643 97.3754 6.43291 97.4128 5.81494C96.4578 5.70258 95.6338 5.45913 94.9409 5.0846C94.2668 4.71007 93.9297 4.04528 93.9297 3.09023C93.9297 2.37862 94.117 1.83555 94.4915 1.46102C94.866 1.06776 95.3623 0.796231 95.9802 0.646418C96.6169 0.47788 97.3005 0.374883 98.0308 0.337431C98.7799 0.299977 99.5196 0.28125 100.25 0.28125C100.98 0.28125 101.72 0.299977 102.469 0.337431C103.218 0.374883 103.902 0.47788 104.52 0.646418C105.138 0.796231 105.634 1.06776 106.008 1.46102C106.402 1.83555 106.598 2.37862 106.598 3.09023C106.598 3.72693 106.439 4.23255 106.121 4.60708C105.802 4.98161 105.372 5.26251 104.829 5.44977C104.285 5.61831 103.696 5.74003 103.059 5.81494C103.115 6.43291 103.153 7.10707 103.171 7.8374C103.19 8.56774 103.199 9.35425 103.199 10.1969C103.199 11.0958 103.181 11.9385 103.143 12.725C103.124 13.4928 103.087 14.2044 103.031 14.8598C103.873 14.9535 104.585 15.1782 105.166 15.534C105.765 15.8711 106.064 16.461 106.064 17.3037C106.064 17.9404 105.887 18.4366 105.531 18.7924C105.194 19.1482 104.735 19.401 104.154 19.5508C103.593 19.7007 102.975 19.7943 102.3 19.8317C101.626 19.8505 100.952 19.8598 100.278 19.8598Z" fill="#7A9FCC"/>
<path d="M77.2689 19.9995C75.9767 19.9995 74.9561 19.3722 74.2071 18.1175C73.4767 16.8628 73.046 15.2149 72.9149 13.1737C72.7651 10.6456 73.0367 8.41718 73.7296 6.48835C74.4412 4.54079 75.5086 3.02394 76.9318 1.9378C78.355 0.851662 80.0498 0.308594 82.016 0.308594C84.0011 0.308594 85.6958 0.851662 87.1003 1.9378C88.5235 3.02394 89.5816 4.53142 90.2744 6.46026C90.986 8.38909 91.2576 10.6269 91.089 13.1737C90.958 15.2711 90.5179 16.9284 89.7688 18.1456C89.0385 19.3628 88.0273 19.9714 86.7351 19.9714C86.0048 19.9714 85.443 19.8404 85.0497 19.5782C84.6565 19.2973 84.3756 18.9508 84.207 18.5389C84.0572 18.1082 83.9823 17.6774 83.9823 17.2467C83.9823 16.7973 84.0104 16.4134 84.0666 16.0951C83.4673 16.1138 82.7651 16.1325 81.9599 16.1512C81.1546 16.1512 80.4805 16.1325 79.9374 16.0951C79.9936 16.4134 80.0217 16.7973 80.0217 17.2467C80.0217 17.6774 79.9374 18.1082 79.7689 18.5389C79.619 18.9508 79.3475 19.2973 78.9543 19.5782C78.561 19.8591 77.9992 19.9995 77.2689 19.9995ZM79.7408 11.0951C81.2202 11.0389 82.6996 11.0389 84.179 11.0951C84.2726 10.4396 84.2632 9.8123 84.1509 9.21305C84.0385 8.61381 83.8044 8.12692 83.4486 7.75239C83.0928 7.37786 82.5872 7.19059 81.9318 7.19059C81.2763 7.19059 80.7707 7.37786 80.4149 7.75239C80.0778 8.12692 79.8531 8.61381 79.7408 9.21305C79.6471 9.79358 79.6471 10.4209 79.7408 11.0951Z" fill="#FECAC9"/>
<path d="M60.4597 19.9157C58.3997 19.9157 56.705 19.5786 55.3754 18.9044C54.0646 18.2115 53.0814 17.116 52.426 15.6179C51.7893 14.1011 51.4335 12.1067 51.3586 9.6348C50.5159 9.57862 49.7575 9.45689 49.0833 9.26963C48.4279 9.08236 47.9129 8.78274 47.5384 8.37076C47.1638 7.95877 46.9766 7.38761 46.9766 6.65728C46.9766 5.62732 47.3605 4.87826 48.1282 4.4101C48.9148 3.92321 50.0664 3.59549 51.5833 3.42695C51.7518 2.41572 52.0608 1.59175 52.5102 0.955051C52.9597 0.31835 53.6526 0 54.5889 0C55.675 0 56.4054 0.308988 56.7799 0.926963C57.1732 1.52621 57.4072 2.28464 57.4821 3.20224C57.6507 3.20224 57.8286 3.20224 58.0158 3.20224C59.7574 3.20224 61.293 3.25842 62.6226 3.37077C63.9522 3.46441 65.0664 3.68912 65.9653 4.04493C66.8641 4.38201 67.5383 4.89698 67.9877 5.58987C68.4372 6.26402 68.6619 7.18162 68.6619 8.34266C68.6619 9.18536 68.4933 9.94378 68.1563 10.6179C67.8379 11.2921 67.4166 11.8726 66.8922 12.3595C66.3679 12.8277 65.7967 13.1928 65.1787 13.455C64.5795 13.6985 63.999 13.8202 63.4372 13.8202C62.8192 13.8202 62.2949 13.6235 61.8641 13.2303C61.4334 12.837 61.2181 12.3501 61.2181 11.7696C61.2181 11.4325 61.3492 11.0674 61.6113 10.6741C61.8735 10.2809 62.1825 9.91569 62.5383 9.57862C61.6582 9.61607 60.7967 9.64416 59.954 9.66288C59.1113 9.68161 58.2593 9.69097 57.3979 9.69097C57.3791 10.103 57.3698 10.4213 57.3698 10.646C57.3698 11.7134 57.4915 12.5468 57.735 13.146C57.9784 13.7453 58.3342 14.1947 58.8024 14.4943C59.2705 14.7752 59.851 14.9531 60.5439 15.028C61.2368 15.1029 62.0327 15.1404 62.9316 15.1404C63.8304 15.1404 64.5889 15.3089 65.2068 15.646C65.8435 15.9831 66.1619 16.5074 66.1619 17.219C66.1619 17.9868 65.8997 18.5673 65.3754 18.9606C64.851 19.3351 64.1488 19.5879 63.2686 19.719C62.4072 19.8501 61.4709 19.9157 60.4597 19.9157Z" fill="#7A9FCC"/>
<path d="M28.3363 19.4662C27.531 19.4662 26.9037 19.2228 26.4543 18.7359C26.0235 18.2303 25.8082 17.6591 25.8082 17.0224C25.8082 16.5542 25.9393 16.0954 26.2014 15.646C26.4636 15.1778 26.7539 14.7378 27.0722 14.3258C27.6153 13.6142 28.046 12.8464 28.3644 12.0224C28.7014 11.1985 28.9636 10.3183 29.1509 9.38199C28.7389 9.36326 28.3456 9.3539 27.9711 9.3539C27.5966 9.3539 27.2501 9.34453 26.9318 9.32581C25.958 9.28836 25.1621 9.01682 24.5442 8.5112C23.9262 8.00559 23.6172 7.20035 23.6172 6.09548C23.6172 5.47751 23.7951 4.96253 24.1509 4.55055C24.5254 4.11984 25.003 3.79212 25.5835 3.5674C26.1827 3.34268 26.8194 3.23033 27.4936 3.23033C27.6621 3.23033 27.9243 3.23969 28.2801 3.25841C28.6546 3.25841 29.0853 3.25841 29.5722 3.25841C29.6471 2.30336 29.8718 1.52621 30.2464 0.926963C30.6396 0.308988 31.3325 0 32.325 0C33.2801 0 33.9636 0.290261 34.3756 0.870783C34.7876 1.45131 35.0123 2.27527 35.0497 3.34268C35.443 3.36141 35.7894 3.37077 36.0891 3.37077C36.3887 3.37077 36.604 3.37077 36.7351 3.37077C38.1771 3.37077 39.3381 3.69849 40.2183 4.35392C41.0984 5.00935 41.7445 5.88013 42.1564 6.96627C42.5684 8.03368 42.7744 9.20408 42.7744 10.4775C42.7744 11.5449 42.6714 12.631 42.4654 13.7359C42.2594 14.822 41.9317 15.8239 41.4823 16.7415C41.0329 17.6591 40.4523 18.3988 39.7407 18.9606C39.0291 19.5224 38.1677 19.8033 37.1565 19.8033C36.6134 19.8033 36.164 19.6909 35.8082 19.4662C35.4523 19.2228 35.1902 18.9325 35.0216 18.5954C34.8531 18.2396 34.7688 17.9119 34.7688 17.6123C34.7688 17.2003 34.8999 16.8071 35.1621 16.4325C35.4243 16.058 35.7426 15.6835 36.1171 15.3089C36.5666 14.8033 36.8849 14.2977 37.0722 13.7921C37.2782 13.2677 37.3999 12.6779 37.4374 12.0224C37.4748 11.2359 37.3625 10.6554 37.1003 10.2809C36.8381 9.90633 36.4636 9.66288 35.9767 9.55053C35.5085 9.43817 34.9655 9.37262 34.3475 9.3539C34.1228 10.4213 33.87 11.4606 33.5891 12.4719C33.3082 13.4644 33.0085 14.3071 32.6902 14.9999C32.0722 16.3295 31.4074 17.4063 30.6958 18.2303C30.0029 19.0542 29.2164 19.4662 28.3363 19.4662Z" fill="#7A9FCC"/>
<path d="M19.0168 19.9741C17.8932 19.9741 16.8913 19.5996 16.0112 18.8505C15.131 18.1014 14.3726 17.0902 13.7359 15.8168C13.1179 14.5434 12.6404 13.1202 12.3033 11.5472C11.985 9.97414 11.8258 8.37302 11.8258 6.74381C11.8258 6.06966 11.8539 5.3955 11.9101 4.72135C11.985 4.02846 12.1254 3.39176 12.3314 2.81124C12.5374 2.23072 12.8464 1.76256 13.2584 1.40675C13.6704 1.05095 14.2322 0.873047 14.9438 0.873047C16.0861 0.873047 16.9475 1.29439 17.528 2.13709C18.1085 2.96105 18.4175 4.03783 18.455 5.36741C18.5112 7.07153 18.6423 8.48538 18.8482 9.60897C19.073 10.7326 19.3258 11.6595 19.6067 12.3899C19.9063 13.1202 20.1872 13.7382 20.4494 14.2438C20.7303 14.7494 20.9643 15.2363 21.1516 15.7045C21.3389 16.1726 21.4325 16.7157 21.4325 17.3337C21.4325 18.0265 21.2359 18.6445 20.8426 19.1876C20.4494 19.7119 19.8408 19.9741 19.0168 19.9741ZM2.41572 19.9179C1.76029 19.9179 1.18913 19.6651 0.702245 19.1595C0.234081 18.6539 0 18.0453 0 17.3337C0 16.7157 0.0936326 16.182 0.280898 15.7325C0.468163 15.2644 0.692881 14.7775 0.955053 14.2719C1.23595 13.7475 1.51685 13.1296 1.79775 12.4179C2.09737 11.6876 2.35018 10.7607 2.55617 9.63706C2.78089 8.49474 2.92134 7.07153 2.97752 5.36741C3.01497 4.03783 3.35205 2.97042 3.98875 2.16518C4.62545 1.35994 5.48687 0.957315 6.57301 0.957315C7.22844 0.957315 7.75278 1.13522 8.14604 1.49102C8.53929 1.8281 8.82956 2.2869 9.01682 2.86742C9.20409 3.42922 9.32581 4.04719 9.38199 4.72135C9.43817 5.3955 9.46626 6.06966 9.46626 6.74381C9.46626 8.35429 9.30708 9.94605 8.98873 11.5191C8.67038 13.0734 8.21158 14.4872 7.61233 15.7606C7.01308 17.0153 6.27339 18.0265 5.39324 18.7943C4.53182 19.5434 3.53931 19.9179 2.41572 19.9179Z" fill="#7A9FCC"/>
</svg>
